<svg width="34" height="34" viewBox="0 0 34 34" fill="none" xmlns="http://www.w3.org/2000/svg">
<rect width="34" height="34" rx="17" fill="#F2F3F5"/>
<rect width="34" height="34" rx="17" fill="black" fill-opacity="0.02"/>
<path d="M11.5417 18.1468L11.542 18.1474C12.5738 19.6782 14.2061 20.7106 16.0003 20.9735C16.3235 21.0329 16.6624 21.0582 17 21.0582C17.3375 21.0582 17.6762 21.0329 17.9741 20.9819C19.7848 20.7109 21.4174 19.687 22.4578 18.1475L22.4583 18.1468C23.1775 17.0638 23.5583 15.8028 23.5583 14.4998C23.5583 10.8863 20.6135 7.9415 17 7.9415C13.3864 7.9415 10.4416 10.8863 10.4416 14.4998C10.4416 15.8028 10.8224 17.0638 11.5417 18.1468ZM16.2252 19.5346L16.2252 19.5346L16.2227 19.5342C14.8178 19.33 13.5508 18.5294 12.7413 17.3357C12.1859 16.5025 11.8916 15.522 11.8916 14.4998C11.8916 11.6801 14.1802 9.3915 17 9.3915C19.8199 9.3915 22.1081 11.6802 22.1 14.4912V14.4915C22.1 15.5137 21.8057 16.4942 21.2503 17.3274C20.4407 18.5212 19.1737 19.33 17.7442 19.5342L17.7441 19.5341L17.74 19.5349C17.2609 19.6242 16.7478 19.6244 16.2252 19.5346Z" fill="#001543" stroke="#001543" stroke-width="0.2"/>
<path d="M12.0273 25.8809L12.0289 25.8813C12.149 25.907 12.265 25.9251 12.3915 25.9251C12.8458 25.9251 13.2735 25.7289 13.5757 25.3736C13.5758 25.3735 13.5759 25.3734 13.576 25.3732L16.9999 21.4276L20.4235 25.3647C20.7974 25.818 21.394 26.023 21.973 25.8808C22.5515 25.747 22.9969 25.3015 23.1305 24.723C23.1305 24.7229 23.1306 24.7227 23.1306 24.7226L23.4214 23.5014C23.4379 23.4488 23.471 23.4219 23.5048 23.4144L23.5048 23.4144L23.5061 23.4141L24.8805 23.0893C24.8806 23.0893 24.8807 23.0892 24.8808 23.0892C25.4243 22.9644 25.8695 22.546 26.0211 22.002C26.1724 21.4592 26.0212 20.8718 25.6205 20.4711L22.3705 17.2211C22.2166 17.0671 22.0041 16.9895 21.7908 17.0089C21.5792 17.0281 21.3757 17.143 21.2578 17.3286C20.4482 18.5219 19.1815 19.3303 17.7523 19.5345L17.7523 19.5344L17.7481 19.5352C17.269 19.6245 16.756 19.6247 16.2334 19.5349L16.2334 19.5349L16.2308 19.5345C14.8178 19.3303 13.5506 18.5214 12.7409 17.3273L12.7407 17.327C12.6163 17.1452 12.4233 17.0284 12.2089 17.0089C11.9955 16.9895 11.7831 17.0671 11.6291 17.2211L8.3791 20.4711C7.97837 20.8718 7.82721 21.4592 7.97848 22.002C8.13024 22.5465 8.56741 22.9558 9.11796 23.089L9.11847 23.0891L10.4903 23.4134C10.5428 23.4299 10.5697 23.463 10.5772 23.4968L10.5772 23.4968L10.5775 23.4983L10.869 24.7226C10.8691 24.7227 10.8691 24.7229 10.8691 24.723C11.0028 25.3017 11.4485 25.7473 12.0273 25.8809ZM9.40385 21.5042L12.0698 18.8382C12.9892 19.876 14.2154 20.5992 15.5542 20.8966L12.4749 24.4422C12.4524 24.467 12.4324 24.475 12.4167 24.4781C12.4006 24.4813 12.3842 24.4804 12.3656 24.4777C12.3463 24.4709 12.3293 24.4633 12.3151 24.452C12.3011 24.4409 12.2876 24.4246 12.2806 24.3943L12.2804 24.3936L11.9889 23.1693C11.9889 23.1692 11.9889 23.1691 11.9888 23.1689C11.8551 22.5903 11.4095 22.1447 10.8308 22.0111C10.8308 22.0111 10.8307 22.0111 10.8306 22.011L9.45614 21.6861L9.4562 21.6859L9.44958 21.6848C9.42597 21.6809 9.41075 21.6699 9.39989 21.6572C9.38756 21.6427 9.38221 21.6272 9.3812 21.6222L9.38196 21.622L9.37801 21.6102C9.37313 21.5956 9.37032 21.5783 9.37276 21.5612C9.37496 21.5457 9.38192 21.5261 9.40385 21.5042ZM21.5272 24.4285L21.5272 24.4284L21.5252 24.4261L18.4458 20.8884C19.7918 20.591 21.0114 19.8674 21.9379 18.8296L24.6041 21.4958C24.6439 21.5356 24.6378 21.5818 24.632 21.5963L24.6285 21.6049L24.6267 21.6139C24.6248 21.6236 24.6076 21.6636 24.5511 21.678C24.5509 21.678 24.5507 21.6781 24.5506 21.6781L23.1773 22.0027C23.1772 22.0027 23.1772 22.0027 23.1771 22.0027C22.5984 22.1364 22.1528 22.582 22.0191 23.1606C22.0191 23.1607 22.0191 23.1609 22.019 23.161L21.7283 24.3819C21.7064 24.4501 21.6641 24.4658 21.65 24.4682L21.6423 24.4694L21.6349 24.4719C21.626 24.4749 21.6098 24.4773 21.5911 24.4728C21.5742 24.4686 21.5512 24.4578 21.5272 24.4285Z" fill="#001543" stroke="#001543" stroke-width="0.2"/>
<path d="M17.7404 17.586L17.7407 17.5862C18.063 17.7778 18.3389 17.8419 18.5752 17.8419C18.8917 17.8419 19.1124 17.7162 19.2192 17.6297C19.3175 17.5589 19.4672 17.4211 19.567 17.1898C19.6681 16.9554 19.7143 16.6333 19.6142 16.2026L19.6143 16.2026L19.6131 16.1983L19.4122 15.4796L20.0625 14.8292C20.4489 14.4429 20.6009 13.964 20.4623 13.5204L20.4623 13.5204L20.4617 13.5186C20.3141 13.0758 19.911 12.7728 19.3747 12.6849L19.3747 12.6848L19.3705 12.6843L18.5989 12.5907L18.1316 11.6561C18.1315 11.656 18.1315 11.6559 18.1314 11.6558C17.8861 11.1566 17.4731 10.8502 17.0002 10.8502C16.5274 10.8502 16.123 11.1481 15.8694 11.6465L15.8693 11.6465L15.8675 11.6504L15.4645 12.5354L14.6256 12.6765C14.0817 12.7643 13.6771 13.0672 13.538 13.512C13.3994 13.9557 13.5515 14.4346 13.9378 14.8209L13.9377 14.821L13.9406 14.8236L14.5646 15.4008L14.3778 16.2025L14.3778 16.2026C14.2777 16.6333 14.3239 16.9554 14.425 17.1898C14.5257 17.4231 14.6771 17.5614 14.7754 17.6316C14.8721 17.7006 15.0508 17.8036 15.3044 17.8299C15.5593 17.8563 15.8806 17.8043 16.2596 17.5778C16.2596 17.5778 16.2597 17.5778 16.2598 17.5777L16.9997 17.1416L17.7404 17.586ZM18.793 14.0576L18.3544 14.4961L18.4252 14.5669L18.3544 14.4961C18.0629 14.7877 17.9287 15.2645 18.0192 15.6719L18.0193 15.6722L18.1186 16.1138L17.6513 15.8393C17.6512 15.8392 17.6511 15.8392 17.6511 15.8391C17.2692 15.612 16.7472 15.6126 16.3582 15.8387L16.3578 15.839L15.8933 16.1119L15.9975 15.6733L15.9975 15.6733L15.9977 15.6724C16.0888 15.2715 15.9447 14.7866 15.6542 14.4961L15.6542 14.4961L15.2195 14.0615L15.7483 13.9824L15.7483 13.9825L15.7499 13.9822C16.132 13.9185 16.509 13.6314 16.6732 13.2944L17.0011 12.6387L17.3274 13.2783C17.3274 13.2784 17.3275 13.2785 17.3276 13.2786C17.5003 13.6237 17.8772 13.9018 18.2584 13.9655C18.2585 13.9655 18.2586 13.9655 18.2587 13.9655L18.793 14.0576Z" fill="#001543" stroke="#001543" stroke-width="0.2"/>
</svg>
