<svg width="25" height="24" viewBox="0 0 25 24" fill="none" xmlns="http://www.w3.org/2000/svg">
    <circle cx="12.75" cy="12" r="10.2" fill="#EEF6E5" stroke="#5AA700" stroke-width="1.6"/>
    <path d="M9.75 16C10.3 16 10.7708 15.8042 11.1625 15.4125C11.5542 15.0208 11.75 14.55 11.75 14C11.75 13.45 11.5542 12.9792 11.1625 12.5875C10.7708 12.1958 10.3 12 9.75 12C9.2 12 8.72917 12.1958 8.3375 12.5875C7.94583 12.9792 7.75 13.45 7.75 14C7.75 14.55 7.94583 15.0208 8.3375 15.4125C8.72917 15.8042 9.2 16 9.75 16ZM15.75 16C16.3 16 16.7708 15.8042 17.1625 15.4125C17.5542 15.0208 17.75 14.55 17.75 14C17.75 13.45 17.5542 12.9792 17.1625 12.5875C16.7708 12.1958 16.3 12 15.75 12C15.2 12 14.7292 12.1958 14.3375 12.5875C13.9458 12.9792 13.75 13.45 13.75 14C13.75 14.55 13.9458 15.0208 14.3375 15.4125C14.7292 15.8042 15.2 16 15.75 16ZM12.75 11C13.3 11 13.7708 10.8042 14.1625 10.4125C14.5542 10.0208 14.75 9.55 14.75 9C14.75 8.45 14.5542 7.97917 14.1625 7.5875C13.7708 7.19583 13.3 7 12.75 7C12.2 7 11.7292 7.19583 11.3375 7.5875C10.9458 7.97917 10.75 8.45 10.75 9C10.75 9.55 10.9458 10.0208 11.3375 10.4125C11.7292 10.8042 12.2 11 12.75 11Z" fill="#5AA700"/>
</svg>
