<svg width="36" height="36" viewBox="0 0 36 36" fill="none" xmlns="http://www.w3.org/2000/svg">
<path d="M13.7215 17.5437L13.7312 17.5457H13.7411H13.7413H13.7416H13.7418H13.7421H13.7424H13.7426H13.7429H13.7431H13.7434H13.7436H13.7439H13.7441H13.7444H13.7446H13.7449H13.7451H13.7454H13.7456H13.7459H13.7461H13.7464H13.7466H13.7469H13.7471H13.7474H13.7476H13.7479H13.7481H13.7484H13.7486H13.7489H13.7491H13.7494H13.7496H13.7499H13.7501H13.7503H13.7506H13.7508H13.7511H13.7513H13.7516H13.7518H13.7521H13.7523H13.7525H13.7528H13.753H13.7533H13.7535H13.7538H13.754H13.7542H13.7545H13.7547H13.755H13.7552H13.7554H13.7557H13.7559H13.7561H13.7564H13.7566H13.7569H13.7571H13.7573H13.7576H13.7578H13.758H13.7583H13.7585H13.7588H13.759H13.7592H13.7595H13.7597H13.7599H13.7602H13.7604H13.7606H13.7609H13.7611H13.7613H13.7616H13.7618H13.762H13.7623H13.7625H13.7627H13.763H13.7632H13.7634H13.7637H13.7639H13.7641H13.7643H13.7646H13.7648H13.765H13.7653H13.7655H13.7657H13.766H13.7662H13.7664H13.7666H13.7669H13.7671H13.7673H13.7675H13.7678H13.768H13.7682H13.7685H13.7687H13.7689H13.7691H13.7694H13.7696H13.7698H13.77H13.7703H13.7705H13.7707H13.7709H13.7712H13.7714H13.7716H13.7718H13.7721H13.7723H13.7725H13.7727H13.773H13.7732H13.7734H13.7736H13.7739H13.7741H13.7743H13.7745H13.7747H13.775H13.7752H13.7754H13.7756H13.7758H13.7761H13.7763H13.7765H13.7767H13.777H13.7772H13.7774H13.7776H13.7778H13.7781H13.7783H13.7785H13.7787H13.7789H13.7792H13.7794H13.7796H13.7798H13.78H13.7802H13.7805H13.7807H13.7809H13.7811H13.7813H13.7816H13.7818H13.782H13.7822H13.7824H13.7826H13.7829H13.7831H13.7833H13.7835H13.7837H13.784H13.7842H13.7844H13.7846H13.7848H13.785H13.7853H13.7855H13.7857H13.7859H13.7861H13.7863H13.7866H13.7868H13.787H13.7872H13.7874H13.7876H13.7878H13.7881H13.7883H13.7885H13.7887H13.7889H13.7891H13.7894H13.7896H13.7898H13.79H13.7902H13.7904H13.7906H13.7909H13.7911H13.7913H13.7915H13.7917H13.7919H13.7921H13.7924H13.7926H13.7928H13.793H13.7932H13.7934H13.7936H13.7939H13.7941H13.7943H13.7945H13.7947H13.7949H13.7951H13.7954H13.7956H13.7958H13.796H13.7962H13.7964H13.7966H13.7969H13.7971H13.7973H13.7975H13.7977H13.7979H13.7981H13.7983H13.7986H13.7988H13.799H13.7992H13.7994H13.7996H13.7998H13.8001H13.8003H13.8005H13.8007H13.8009H13.8011H13.8013H13.8016H13.8018H13.802H13.8022H13.8024H13.8026H13.8028H13.803H13.8033H13.8035H13.8037H13.8039H13.8041H13.8043H13.8045H13.8048H13.805H13.8052H13.8054H13.8056H13.8058H13.806H13.8063H13.8065H13.8067H13.8069H13.8071H13.8073H13.8075H13.8078H13.808H13.8082H13.8084H13.8086H13.8088H13.809H13.8093H13.8095H13.8097H13.8099H13.8101H13.8103H13.8106H13.8108H13.811H13.8112H13.8114H13.8116H13.8118H13.8121H13.8123H13.8125H13.8127H13.8129H13.8131H13.8134H13.8136H13.8138H13.814H13.8142H13.8144H13.8147H13.8149H13.8151H13.8153H13.8155H13.8157H13.816H13.8162H13.8164H13.8166H13.8168H13.8171H13.8173H13.8175H13.8177H13.8179H13.8181H13.8184H13.8186H13.8188H13.819H13.8192H13.8195H13.8197H13.8199H13.8201H13.8203H13.8206H13.8208H13.821H13.8212H13.8214H13.8217H13.8219H13.8221H13.8223H13.8225H13.8228H13.823H13.8232H13.8234H13.8236H13.8239H13.8241H13.8243H13.8245H13.8248H13.825H13.8252H13.8254H13.8256H13.8259H13.8261H13.8263H13.8265H13.8268H13.827H13.8272H13.8274H13.8277H13.8279H13.8281H13.8283H13.8286H13.8288H13.829H13.8292H13.8295H13.8297H13.8299H13.8301H13.8304H13.8306H13.8308H13.8311H13.8313H13.8315H13.8317H13.832H13.8322H13.8324H13.8326H13.8329H13.8331H13.8333H13.8336H13.8338H13.834H13.8343H13.8345H13.8347H13.8349H13.8352H13.8354H13.8356H13.8359H13.8361H13.8363H13.8366H13.8368H13.837H13.8373H13.8375H13.8377H13.838H13.8382H13.8384H13.8387H13.8389H13.8391H13.8394H13.8396H13.8398H13.8401H13.8403H13.8405H13.8408H13.841H13.8413H13.8415H13.8417H13.842H13.8422H13.8424H13.8427H13.8429H13.8432H13.8434H13.8436H13.8439H13.8441H13.8444H13.8446H13.8448H13.8451H13.8453H13.8456H13.8458H13.846H13.8463H13.8465H13.8468H13.847H13.8473H13.8475H13.8477H13.848H13.8482H13.8485H13.8487H13.849H13.8492H13.8495H13.8497H13.85H13.8502H13.8504H13.8507H13.8509H13.8512H13.8514H13.8517H13.8519H13.8522H13.8524H13.8527H13.8529H13.8532H13.8534H13.8537H13.8539H13.8542H13.8544H13.8547H13.8549H13.8552H13.8555H13.8557H13.856H13.8562H13.8565H13.8567H13.857H13.8572H13.8575H13.8577H13.8578H13.8579H13.858H13.8581H13.8582H13.8583H13.8583H13.8584H13.8585H13.8586H13.8587H13.8588H13.8589H13.8589H13.859H13.8591H13.8592H13.8593H13.8594H13.8595H13.8595H13.8596H13.8597H13.8598H13.8599H13.86H13.8601H13.8601H13.8602H13.8603H13.8604H13.8605H13.8606H13.8607H13.8607H13.8608H13.8609H13.861H13.8611H13.8612H13.8613H13.8613H13.8614H13.8615H13.8616H13.8617H13.8618H13.8618H13.8619H13.862H13.8621H13.8622H13.8623H13.8624H13.8624H13.8625H13.8626H13.8627H13.8628H13.8629H13.863H13.863H13.8631H13.8632H13.8633H13.8634H13.8635H13.8636H13.8636H13.8637H13.8638H13.8639H13.864H13.8641H13.8642H13.8642H13.8643H13.8644H13.8645H13.8646H13.8647H13.8648H13.8648H13.8649H13.865H13.8651H13.8652H13.8653H13.8654H13.8654H13.8655H13.8656H13.8657H13.8658H13.8659H13.866H13.866H13.8661H13.8662H13.8663H13.8664H13.8665H13.8665H13.8666H13.8667H13.8668H13.8669H13.867H13.8671H13.8671H13.8672H13.8673H13.8674H13.8675H13.8676H13.8677H13.8677H13.8678H13.8679H13.868H13.8681H13.8682H13.8683H13.8683H13.8684H13.8685H13.8686H13.8687H13.8688H13.8689H13.8689H13.869H13.8691H13.8692H13.8693H13.8694H13.8695H13.8695H13.8696H13.8697H13.8698H13.8699H13.87H13.8701H13.8701H13.8702H13.8703H13.8704H13.8705H13.8706H13.8707H13.8707H13.8708H13.8709H13.871H13.8711H13.8712H13.8712H13.8713H13.8714H13.8715H13.8716H13.8717H13.8718H13.8718H13.8719H13.872H13.8721H13.8722H13.8723H13.8724H13.8724H13.8725H13.8726H13.8727H13.8728H13.8729H13.873H13.873H13.8731H13.8732H13.8733H13.8734H13.8735H13.8736H13.8736H13.8737H13.8738H13.8739H13.874H13.8741H13.8742H13.8742H13.8743H13.8744H13.8745H13.8746H13.8747H13.8748H13.8748H13.8749H13.875H13.8751H13.8752H13.8753H13.8754H13.8754H13.8755H13.8756H13.8757H13.8758H13.8759H13.8759H13.876H13.8761H13.8762H13.8763H13.8764H13.8765H13.8765H13.8766H13.8767H13.8768H13.8769H13.877H13.8771H13.8771H13.8772H13.8773H13.8774H13.8775H13.8776H13.8777H13.8777H13.8778H13.8779H13.878H13.8781H13.8782H13.8783H13.8783H13.8784H13.8785H13.8786H13.8787H13.8788H13.8789H13.8789H13.879H13.8791H13.8792H13.8793H13.8794H13.8795H13.8795H13.8796H13.8797H13.8798H13.8799H13.88H13.8801H13.8801H13.8802H13.8803H13.8804H13.8805H13.8806H13.8806H13.8807H13.8808H13.8809H13.881H13.8811H13.8812H13.8812H13.8813H13.8814H13.8815H13.8816H13.8817H13.8818H13.8818H13.8819H13.882H13.8821H13.8822H13.8823H13.8824H13.8824H13.8825H13.8826H13.8827H13.8828H13.8829H13.883H13.883H13.8831H13.8832H13.8833H13.8834H13.8835H13.8836H13.8836H13.8837H13.8838H13.8839H13.884H13.8841H13.8842H13.8842H13.8843H13.8844H13.8845H13.8846H13.8847H13.8847H13.8848H13.8849H13.885H13.8851H13.8852H13.8853H13.8853H13.8854H13.8855H13.8856H13.8857H13.8858H13.8859H13.8859H13.886H13.8861H13.8862H13.8863H13.8864H13.8865H13.8865H13.8866H13.8867H13.8868H13.8869H13.887H13.8871H13.8871H13.8872H13.8873H13.8874H13.8875H13.8876H13.8877H13.8877H13.8878H13.8879H13.888H13.8881H13.8882H13.8883H13.8883H13.8884H13.8885H13.8886H13.8887H13.8888H13.8889H13.8889H13.889H13.8891H13.8892H13.8893H13.8894H13.8894H13.8895H13.8896H13.8897H13.8898H13.8899H13.89H13.89H13.8901H13.8902H13.8903H13.8904H13.8905H13.8906H13.8906H13.8907H13.8908H13.8909H13.891H13.8911H13.8912H13.8912H13.8913H13.8914H13.8915H13.8916H13.8917H13.8918H13.8918H13.8919H13.892H13.8921H13.8922H13.8923H13.8924H13.8924H13.8925H13.8926H13.8927H13.8928H13.8929H13.893H13.893H13.8931H13.8932H13.8933H13.8934H13.8935H13.8936H13.8936H13.8937H13.8938H13.8939H13.894H13.8941H13.8941H13.8942H13.8943H13.8944H13.8945H13.8946H13.8947H13.8947H13.8948H13.8949H13.895H13.8951H13.8952H13.8953H13.8953H13.8954H13.8955H13.8956H13.8957H13.8958H13.8959H13.8959H13.896H13.8961H13.8962H13.8963H13.8964H13.8965H13.8965H13.8966H13.8967H13.8968H13.8969H13.897H13.8971H13.8971H13.8972H13.8973H13.8974H13.8975H13.8976H13.8977H13.8977H13.8978H13.8979H13.898H13.8981H13.8982H13.8983H13.8983H13.8984H13.8985H13.8986H13.8987H13.8988H13.8988H13.8989H13.899H13.8991H13.8992H13.8993H13.8994H13.8994H13.8995H13.8996H13.8997H13.8998H13.8999H13.9H13.9H13.9001H13.9002H13.9003H13.9004H13.9005H13.9006H13.9006H13.9007H13.9008H13.9009H13.901H13.9011H13.9012H13.9012H13.9013H13.9014H13.9015V17.5457L13.9047 17.5456C18.0279 17.4126 21.2784 14.043 21.2932 9.89186V9.8915C21.2932 5.66544 17.8505 2.22275 13.6244 2.22275C9.39835 2.22275 5.95566 5.66544 5.95566 9.8915C5.95566 14.0441 9.19293 17.4127 13.4755 17.5456L13.4853 17.5459L13.495 17.5443C13.5728 17.5313 13.6625 17.5319 13.7215 17.5437ZM8.34316 9.8915C8.34316 6.98632 10.7192 4.61025 13.6244 4.61025C16.5296 4.61025 18.9056 6.98624 18.9057 9.89137C18.8912 12.7239 16.69 15.0262 13.8884 15.158C13.7061 15.1443 13.5164 15.1431 13.4143 15.1579C10.5705 15.053 8.34316 12.7511 8.34316 9.8915Z" fill="#AEAEB2" stroke="#AEAEB2" stroke-width="0.2"/>
<path d="M24.1161 15.3484L24.1161 15.3484L24.1123 15.3488C23.4517 15.4294 23.058 16.0255 23.1207 16.6682C23.1847 17.3241 23.8425 17.774 24.479 17.7223C24.5306 17.7356 24.5796 17.7356 24.6158 17.7356L24.6202 17.7356H24.6203H24.6204H24.6205H24.6206H24.6206H24.6207H24.6208H24.6209H24.621H24.6211H24.6212H24.6212H24.6213H24.6214H24.6215H24.6216H24.6217H24.6217H24.6218H24.6219H24.622H24.6221H24.6222H24.6223H24.6223H24.6224H24.6225H24.6226H24.6227H24.6228H24.6229H24.6229H24.623H24.6231H24.6232H24.6233H24.6234H24.6235H24.6235H24.6236H24.6237H24.6238H24.6239H24.624H24.6241H24.6241H24.6242H24.6243H24.6244H24.6245H24.6246H24.6247H24.6247H24.6248H24.6249H24.625H24.6251H24.6252H24.6253H24.6253H24.6254H24.6255H24.6256H24.6257H24.6258H24.6259H24.6259H24.626H24.6261H24.6262H24.6263H24.6264H24.6264H24.6265H24.6266H24.6267H24.6268H24.6269H24.627H24.627H24.6271H24.6272H24.6273H24.6274H24.6275H24.6276H24.6276H24.6277H24.6278H24.6279H24.628H24.6281H24.6282H24.6282H24.6283H24.6284H24.6285H24.6286H24.6287H24.6288H24.6288H24.6289H24.629H24.6291H24.6292H24.6293H24.6294H24.6294H24.6295H24.6296H24.6297H24.6298H24.6299H24.63H24.63H24.6301H24.6302H24.6303H24.6304H24.6305H24.6305H24.6306H24.6307H24.6308H24.6309H24.631H24.6311H24.6311H24.6312H24.6313H24.6314H24.6315H24.6316H24.6317H24.6317H24.6318H24.6319H24.632H24.6321H24.6322H24.6323H24.6323H24.6324H24.6325H24.6326H24.6327H24.6328H24.6329H24.6329H24.633H24.6331H24.6332H24.6333H24.6334H24.6335H24.6335H24.6336H24.6337H24.6338H24.6339H24.634H24.6341H24.6341H24.6342H24.6343H24.6344H24.6345H24.6346H24.6347H24.6347H24.6348H24.6349H24.635H24.6351H24.6352H24.6352H24.6353H24.6354H24.6355H24.6356H24.6357H24.6358H24.6358H24.6359H24.636H24.6361H24.6362H24.6363H24.6364H24.6364H24.6365H24.6366H24.6367H24.6368H24.6369H24.637H24.637H24.6371H24.6372H24.6373H24.6374H24.6375H24.6376H24.6376H24.6377H24.6378H24.6379H24.638H24.6381H24.6382H24.6382H24.6383H24.6384H24.6385H24.6386H24.6387H24.6388H24.6388H24.6389H24.639H24.6391H24.6392H24.6393H24.6394H24.6394H24.6395H24.6396H24.6397H24.6398H24.6399H24.6399H24.64H24.6401H24.6402H24.6403H24.6404H24.6405H24.6405H24.6406H24.6407H24.6408H24.6409H24.641H24.6411H24.6411H24.6412H24.6413H24.6414H24.6415H24.6416H24.6417H24.6417H24.6418H24.6419H24.642H24.6421H24.6422H24.6423H24.6423H24.6424H24.6425H24.6426H24.6427H24.6428H24.6429H24.6429H24.643H24.6431H24.6432H24.6433H24.6434H24.6435H24.6435H24.6436H24.6437H24.6438H24.6439H24.644H24.6441H24.6441H24.6442H24.6443H24.6444H24.6445H24.6446H24.6446H24.6447H24.6448H24.6449H24.645H24.6451H24.6452H24.6452H24.6453H24.6454H24.6455H24.6456H24.6457H24.6458H24.6458H24.6459H24.646H24.6461H24.6462H24.6463H24.6464H24.6464H24.6465H24.6466H24.6467H24.6468H24.6469H24.647H24.647H24.6471H24.6472H24.6473H24.6474H24.6475H24.6476H24.6476H24.6477H24.6478H24.6479H24.648H24.6481H24.6482H24.6482H24.6483H24.6484H24.6485H24.6486H24.6487H24.6487H24.6488H24.6489H24.649H24.6491H24.6492H24.6493H24.6493H24.6494H24.6495H24.6496H24.6497H24.6498H24.6499H24.6499H24.65H24.6501H24.6502H24.6503H24.6504H24.6505H24.6505H24.6506H24.6507H24.6508H24.6509H24.651H24.6511H24.6511H24.6512H24.6513H24.6514H24.6515H24.6516H24.6517H24.6517H24.6518H24.6519H24.652H24.6521H24.6522H24.6523H24.6523H24.6524H24.6525H24.6526H24.6527H24.6528H24.6529H24.6529H24.653H24.6531H24.6532H24.6533H24.6534H24.6534H24.6535H24.6536H24.6537H24.6538H24.6539H24.654H24.654H24.6541H24.6542H24.6543H24.6544H24.6545H24.6546H24.6546H24.6547H24.6548H24.6549H24.655H24.6551H24.6552H24.6552H24.6553H24.6554H24.6555H24.6556H24.6557H24.6558H24.6558H24.6559H24.656H24.6561H24.6562H24.6563H24.6564H24.6564H24.6565H24.6566H24.6567H24.6568H24.6569H24.657H24.657H24.6571H24.6572H24.6573H24.6574H24.6575H24.6576H24.6576H24.6577H24.6578H24.6579H24.658H24.6581H24.6581H24.6582H24.6583H24.6584H24.6585H24.6586H24.6587H24.6587H24.6588H24.6589H24.659H24.6591H24.6592H24.6593H24.6593H24.6594H24.6595H24.6596H24.6597H24.6598H24.6599H24.6599H24.66H24.6601H24.6602H24.6603H24.6604H24.6605H24.6605H24.6606H24.6607H24.6608H24.6609H24.661H24.6611H24.6611H24.6612H24.6613H24.6614H24.6615H24.6616H24.6617H24.6617H24.6618H24.6619H24.662H24.6621H24.6622H24.6623H24.6623H24.6624H24.6625H24.6626H24.6627H24.6628H24.6628H24.6629H24.663H24.6631H24.6632H24.6633H24.6634H24.6634H24.6635H24.6636H24.6637H24.6638H24.6639H24.664V17.7357L24.6679 17.7355C28.0609 17.6022 30.7285 14.8458 30.7285 11.4377C30.7285 7.96993 27.8984 5.13975 24.4306 5.13975C23.7775 5.13975 23.2369 5.68035 23.2369 6.3335C23.2369 6.98573 23.7769 7.52793 24.4318 7.51266C26.5927 7.5133 28.341 9.26204 28.341 11.4231C28.341 13.5128 26.7215 15.2184 24.6466 15.3335C24.4875 15.3335 24.2949 15.3335 24.1161 15.3484Z" fill="#AEAEB2" stroke="#AEAEB2" stroke-width="0.2"/>
<path d="M5.9129 20.7314L5.91257 20.7316C3.86443 22.102 2.73276 23.9824 2.73276 26.021C2.73276 28.0597 3.86455 29.9256 5.91268 31.2813C8.10548 32.7529 10.9988 33.4856 13.8723 33.4856C16.7461 33.4856 19.6248 32.7527 21.832 31.2813L21.8321 31.2812C23.8803 29.9108 25.0119 28.0304 25.0119 25.9918C25.0119 23.9527 23.8652 22.087 21.832 20.7316C19.6393 19.2673 16.7605 18.5382 13.8833 18.5382C11.006 18.5382 8.12009 19.2673 5.9129 20.7314ZM7.2343 29.3067L7.23386 29.3064C5.8656 28.399 5.12026 27.2305 5.12026 26.0356C5.12026 24.8255 5.85169 23.657 7.23407 22.7354C9.02946 21.5385 11.4479 20.9366 13.8723 20.9366C16.2968 20.9366 18.7152 21.5385 20.5106 22.7354L20.5108 22.7356C21.8791 23.643 22.6244 24.8115 22.6244 26.0064C22.6244 27.2165 21.893 28.385 20.5106 29.3065L20.5104 29.3067C18.715 30.5108 16.2967 31.1163 13.8723 31.1163C11.448 31.1163 9.02965 30.5108 7.2343 29.3067ZM22.7244 26.0064C22.7244 24.7668 21.9515 23.571 20.5661 22.6522L7.1786 29.3897C10.8098 31.8252 16.9348 31.8252 20.5661 29.3897C21.9661 28.4564 22.7244 27.2606 22.7244 26.0064Z" fill="#AEAEB2" stroke="#AEAEB2" stroke-width="0.2"/>
<path d="M26.0825 29.9045C26.194 30.4782 26.6887 30.8604 27.2452 30.8604H27.2483C27.3192 30.8605 27.4037 30.8605 27.5039 30.8282C28.7696 30.5771 29.9194 30.0613 30.8353 29.3522C32.2119 28.3012 33.0181 26.8299 33.0181 25.2771C33.0181 23.7251 32.2271 22.2534 30.8496 21.2163C29.947 20.521 28.8395 20.0197 27.573 19.7399L27.5729 19.7399C26.921 19.5967 26.2847 20.0101 26.1414 20.6468L26.1414 20.6468L26.1413 20.6473C25.9982 21.2992 26.4114 21.9354 27.048 22.0788C27.9853 22.2951 28.7731 22.64 29.4007 23.125L29.4007 23.125L29.4019 23.1259C30.2002 23.7246 30.6306 24.485 30.6306 25.2771C30.6306 26.0689 30.2005 26.8295 29.3871 27.4431L29.3871 27.4431L29.3859 27.444C28.7438 27.9434 27.9128 28.3025 27.0063 28.4896L27.0063 28.4896L27.0045 28.49C26.3688 28.633 25.9554 29.2531 26.0825 29.9045ZM26.0825 29.9045L26.1806 29.8854L26.0825 29.9046C26.0825 29.9046 26.0825 29.9046 26.0825 29.9045Z" fill="#AEAEB2" stroke="#AEAEB2" stroke-width="0.2"/>
</svg>
