<svg width="17" height="16" viewBox="0 0 17 16" fill="none" xmlns="http://www.w3.org/2000/svg">
<path d="M8.66667 14.4336C8.46 14.4336 8.26 14.4069 8.09333 14.3469C5.54667 13.4736 1.5 10.3736 1.5 5.79356C1.5 3.46023 3.38667 1.56689 5.70667 1.56689C6.83333 1.56689 7.88667 2.00689 8.66667 2.79356C9.44667 2.00689 10.5 1.56689 11.6267 1.56689C13.9467 1.56689 15.8333 3.46689 15.8333 5.79356C15.8333 10.3802 11.7867 13.4736 9.24 14.3469C9.07333 14.4069 8.87333 14.4336 8.66667 14.4336ZM5.70667 2.56689C3.94 2.56689 2.5 4.01356 2.5 5.79356C2.5 10.3469 6.88 12.8802 8.42 13.4069C8.54 13.4469 8.8 13.4469 8.92 13.4069C10.4533 12.8802 14.84 10.3536 14.84 5.79356C14.84 4.01356 13.4 2.56689 11.6333 2.56689C10.62 2.56689 9.68 3.04023 9.07333 3.86023C8.88667 4.11356 8.46 4.11356 8.27333 3.86023C7.65333 3.03356 6.72 2.56689 5.70667 2.56689Z" fill="#405072"/>
</svg>
