<?xml version="1.0" encoding="utf-8"?>
<svg width="17" height="16" viewBox="0 0 17 16" fill="none" xmlns="http://www.w3.org/2000/svg">
  <defs/>
  <path d="M 8.667 14.434 C 8.46 14.434 8.26 14.407 8.093 14.347 C 5.547 13.474 1.5 10.374 1.5 5.794 C 1.5 3.46 3.387 1.567 5.707 1.567 C 6.833 1.567 7.887 2.007 8.667 2.794 C 9.447 2.007 10.5 1.567 11.627 1.567 C 13.947 1.567 15.833 3.467 15.833 5.794 C 15.833 10.38 11.787 13.474 9.24 14.347 C 9.073 14.407 8.873 14.434 8.667 14.434 Z M 11.468 7.601 C 9.701 7.601 4.946 4.668 4.946 6.448 C 4.946 11.001 7.104 11.214 8.644 11.741 C 8.764 11.781 7.11 11.732 7.236 11.72 C 8.61 11.587 3.541 11.068 2.615 8.998 C 2.068 7.775 3.646 7.546 1.879 7.546 C 0.866 7.546 9.68 3.04 9.073 3.86 C 8.887 4.114 8.46 4.114 8.273 3.86 C 7.653 3.034 12.481 7.601 11.468 7.601 Z" style="fill: rgb(218, 42, 42); stroke-linecap: round; stroke-width: 4px; fill-rule: nonzero;"/>
</svg>