<svg width="17" height="16" viewBox="0 0 17 16" fill="none" xmlns="http://www.w3.org/2000/svg">
<path d="M8.25004 14.4336C8.04337 14.4336 7.84337 14.4069 7.67671 14.3469C5.13004 13.4736 1.08337 10.3736 1.08337 5.79356C1.08337 3.46023 2.97004 1.56689 5.29004 1.56689C6.41671 1.56689 7.47004 2.00689 8.25004 2.79356C9.03004 2.00689 10.0834 1.56689 11.21 1.56689C13.53 1.56689 15.4167 3.46689 15.4167 5.79356C15.4167 10.3802 11.37 13.4736 8.82337 14.3469C8.65671 14.4069 8.45671 14.4336 8.25004 14.4336ZM5.29004 2.56689C3.52337 2.56689 2.08337 4.01356 2.08337 5.79356C2.08337 10.3469 6.46337 12.8802 8.00337 13.4069C8.12337 13.4469 8.38337 13.4469 8.50337 13.4069C10.0367 12.8802 14.4234 10.3536 14.4234 5.79356C14.4234 4.01356 12.9834 2.56689 11.2167 2.56689C10.2034 2.56689 9.26337 3.04023 8.65671 3.86023C8.47004 4.11356 8.04337 4.11356 7.85671 3.86023C7.23671 3.03356 6.30337 2.56689 5.29004 2.56689Z" fill="#405072"/>
</svg>
