<svg width="25" height="24" viewBox="0 0 25 24" fill="none" xmlns="http://www.w3.org/2000/svg">
<path d="M12.25 16.75C11.85 16.75 11.45 16.72 11.07 16.65C8.95 16.34 7.02 15.12 5.8 13.31C4.95 12.03 4.5 10.54 4.5 9C4.5 4.73 7.98 1.25 12.25 1.25C16.52 1.25 20 4.73 20 9C20 10.54 19.55 12.03 18.7 13.31C17.47 15.13 15.54 16.34 13.4 16.66C13.05 16.72 12.65 16.75 12.25 16.75ZM12.25 2.75C8.8 2.75 6 5.55 6 9C6 10.25 6.36 11.45 7.04 12.47C8.03 13.93 9.58 14.91 11.3 15.16C11.94 15.27 12.57 15.27 13.16 15.16C14.91 14.91 16.46 13.92 17.45 12.46C18.13 11.44 18.49 10.24 18.49 8.98999C18.5 5.54999 15.7 2.75 12.25 2.75Z" fill="#7F8AA1"/>
<path d="M6.71933 22.59C6.57933 22.59 6.44933 22.57 6.30933 22.54C5.65933 22.39 5.15933 21.89 5.00933 21.24L4.65933 19.77C4.63933 19.68 4.56933 19.61 4.46933 19.58L2.81933 19.19C2.19933 19.04 1.70933 18.58 1.53933 17.97C1.36933 17.36 1.53933 16.7 1.98933 16.25L5.88933 12.35C6.04933 12.19 6.26933 12.11 6.48933 12.13C6.70933 12.15 6.90933 12.27 7.03933 12.46C8.02933 13.92 9.57933 14.91 11.3093 15.16C11.9493 15.27 12.5793 15.27 13.1693 15.16C14.9193 14.91 16.4693 13.92 17.4593 12.46C17.5793 12.27 17.7893 12.15 18.0093 12.13C18.2293 12.11 18.4493 12.19 18.6093 12.35L22.5093 16.25C22.9593 16.7 23.1293 17.36 22.9593 17.97C22.7893 18.58 22.2893 19.05 21.6793 19.19L20.0293 19.58C19.9393 19.6 19.8693 19.67 19.8393 19.77L19.4893 21.24C19.3393 21.89 18.8393 22.39 18.1893 22.54C17.5393 22.7 16.8693 22.47 16.4493 21.96L12.2493 17.13L8.04933 21.97C7.70933 22.37 7.22933 22.59 6.71933 22.59ZM6.33933 14.03L3.04933 17.32C2.95933 17.41 2.96933 17.51 2.98933 17.57C2.99933 17.62 3.04933 17.72 3.16933 17.74L4.81933 18.13C5.46933 18.28 5.96933 18.78 6.11933 19.43L6.46933 20.9C6.49933 21.03 6.59933 21.07 6.65933 21.09C6.71933 21.1 6.81933 21.11 6.90933 21.01L10.7393 16.6C9.03933 16.27 7.47933 15.36 6.33933 14.03ZM13.7593 16.59L17.5893 20.99C17.6793 21.1 17.7893 21.1 17.8493 21.08C17.9093 21.07 17.9993 21.02 18.0393 20.89L18.3893 19.42C18.5393 18.77 19.0393 18.27 19.6893 18.12L21.3393 17.73C21.4593 17.7 21.5093 17.61 21.5193 17.56C21.5393 17.51 21.5493 17.4 21.4593 17.31L18.1693 14.02C17.0193 15.35 15.4693 16.26 13.7593 16.59Z" fill="#7F8AA1"/>
<path d="M14.1401 12.8903C13.8801 12.8903 13.5701 12.8203 13.2001 12.6003L12.2501 12.0302L11.3001 12.5902C10.4301 13.1102 9.86014 12.8102 9.65014 12.6602C9.44014 12.5102 8.99014 12.0603 9.22014 11.0703L9.46014 10.0403L8.66014 9.30023C8.22014 8.86023 8.06014 8.33025 8.21014 7.85025C8.36014 7.37025 8.80014 7.03024 9.42014 6.93024L10.4901 6.75024L11.0001 5.63025C11.2901 5.06025 11.7401 4.74023 12.2501 4.74023C12.7601 4.74023 13.2201 5.07026 13.5001 5.64026L14.0901 6.82025L15.0801 6.94025C15.6901 7.04025 16.1301 7.38023 16.2901 7.86023C16.4401 8.34023 16.2801 8.87024 15.8401 9.31024L15.0101 10.1403L15.2701 11.0703C15.5001 12.0603 15.0501 12.5102 14.8401 12.6602C14.7301 12.7502 14.4901 12.8903 14.1401 12.8903ZM9.86014 8.39026L10.5501 9.08023C10.8701 9.40023 11.0301 9.94025 10.9301 10.3802L10.7401 11.1802L11.5401 10.7102C11.9701 10.4602 12.5501 10.4602 12.9701 10.7102L13.7701 11.1802L13.5901 10.3802C13.4901 9.93025 13.6401 9.40023 13.9601 9.08023L14.6501 8.39026L13.7801 8.24023C13.3601 8.17023 12.9401 7.86026 12.7501 7.48026L12.2501 6.50024L11.7501 7.50024C11.5701 7.87024 11.1501 8.19025 10.7301 8.26025L9.86014 8.39026Z" fill="#7F8AA1"/>
</svg>
