<?xml version="1.0" encoding="utf-8"?>
<svg width="25" height="24" viewBox="0 0 25 24" fill="none" xmlns="http://www.w3.org/2000/svg">
  <defs/>
  <path d="M12.25 16.75C11.85 16.75 11.45 16.72 11.07 16.65C8.95 16.34 7.02 15.12 5.8 13.31C4.95 12.03 4.5 10.54 4.5 9C4.5 4.73 7.98 1.25 12.25 1.25C16.52 1.25 20 4.73 20 9C20 10.54 19.55 12.03 18.7 13.31C17.47 15.13 15.54 16.34 13.4 16.66C13.05 16.72 12.65 16.75 12.25 16.75ZM12.25 2.75C8.8 2.75 6 5.55 6 9C6 10.25 6.36 11.45 7.04 12.47C8.03 13.93 9.58 14.91 11.3 15.16C11.94 15.27 12.57 15.27 13.16 15.16C14.91 14.91 16.46 13.92 17.45 12.46C18.13 11.44 18.49 10.24 18.49 8.98999C18.5 5.54999 15.7 2.75 12.25 2.75Z" style="fill: rgb(90, 167, 0);"/>
  <path d="M6.71933 22.59C6.57933 22.59 6.44933 22.57 6.30933 22.54C5.65933 22.39 5.15933 21.89 5.00933 21.24L4.65933 19.77C4.63933 19.68 4.56933 19.61 4.46933 19.58L2.81933 19.19C2.19933 19.04 1.70933 18.58 1.53933 17.97C1.36933 17.36 1.53933 16.7 1.98933 16.25L5.88933 12.35C6.04933 12.19 6.26933 12.11 6.48933 12.13C6.70933 12.15 6.90933 12.27 7.03933 12.46C8.02933 13.92 9.57933 14.91 11.3093 15.16C11.9493 15.27 12.5793 15.27 13.1693 15.16C14.9193 14.91 16.4693 13.92 17.4593 12.46C17.5793 12.27 17.7893 12.15 18.0093 12.13C18.2293 12.11 18.4493 12.19 18.6093 12.35L22.5093 16.25C22.9593 16.7 23.1293 17.36 22.9593 17.97C22.7893 18.58 22.2893 19.05 21.6793 19.19L20.0293 19.58C19.9393 19.6 19.8693 19.67 19.8393 19.77L19.4893 21.24C19.3393 21.89 18.8393 22.39 18.1893 22.54C17.5393 22.7 16.8693 22.47 16.4493 21.96L12.2493 17.13L8.04933 21.97C7.70933 22.37 7.22933 22.59 6.71933 22.59ZM6.33933 14.03L3.04933 17.32C2.95933 17.41 2.96933 17.51 2.98933 17.57C2.99933 17.62 3.04933 17.72 3.16933 17.74L4.81933 18.13C5.46933 18.28 5.96933 18.78 6.11933 19.43L6.46933 20.9C6.49933 21.03 6.59933 21.07 6.65933 21.09C6.71933 21.1 6.81933 21.11 6.90933 21.01L10.7393 16.6C9.03933 16.27 7.47933 15.36 6.33933 14.03ZM13.7593 16.59L17.5893 20.99C17.6793 21.1 17.7893 21.1 17.8493 21.08C17.9093 21.07 17.9993 21.02 18.0393 20.89L18.3893 19.42C18.5393 18.77 19.0393 18.27 19.6893 18.12L21.3393 17.73C21.4593 17.7 21.5093 17.61 21.5193 17.56C21.5393 17.51 21.5493 17.4 21.4593 17.31L18.1693 14.02C17.0193 15.35 15.4693 16.26 13.7593 16.59Z" style="fill: rgb(90, 167, 0);"/>
  <path d="M 14.14 12.89 C 13.88 12.89 13.57 12.82 13.2 12.6 L 12.332 12.171 L 11.3 12.59 C 10.43 13.11 9.86 12.81 9.65 12.66 C 9.44 12.51 8.99 12.06 9.22 11.07 L 9.46 10.04 L 8.66 9.3 C 8.22 8.86 8.06 8.33 8.21 7.85 C 8.36 7.37 8.8 7.03 9.42 6.93 L 10.49 6.75 L 11 5.63 C 11.29 5.06 11.74 4.74 12.25 4.74 C 12.76 4.74 13.22 5.07 13.5 5.64 L 14.09 6.82 L 15.08 6.94 C 15.69 7.04 16.13 7.38 16.29 7.86 C 16.44 8.34 16.28 8.87 15.84 9.31 L 15.01 10.14 L 15.27 11.07 C 15.5 12.06 15.05 12.51 14.84 12.66 C 14.73 12.75 14.49 12.89 14.14 12.89 Z M 9.86 8.39 L 10.55 9.08 C 10.87 9.4 11.122 9.177 11.022 9.617 L 11.346 10.04 L 11.54 10.71 C 11.97 10.46 11.931 10.69 12.351 10.94 L 11.528 7.099 L 13.59 10.38 C 13.49 9.93 13.64 9.4 13.96 9.08 L 14.65 8.39 L 13.582 11.837 C 13.161 11.767 12.278 7.355 12.791 7.317 L 13.598 12.009 L 11.75 7.5 C 11.573 7.876 14.621 17.107 10.051 8.706 L 9.86 8.39 Z" style="fill: rgb(90, 167, 0);"/>
</svg>