<svg width="16" height="16" viewBox="0 0 16 16" fill="none" xmlns="http://www.w3.org/2000/svg">
<path d="M7.99967 15.2068C7.53967 15.2068 7.10634 14.9735 6.79967 14.5668L5.79967 13.2335C5.77967 13.2068 5.69967 13.1735 5.66634 13.1668H5.33301C2.55301 13.1668 0.833008 12.4135 0.833008 8.66683V5.3335C0.833008 2.38683 2.38634 0.833496 5.33301 0.833496H10.6663C13.613 0.833496 15.1663 2.38683 15.1663 5.3335V8.66683C15.1663 11.6135 13.613 13.1668 10.6663 13.1668H10.333C10.2797 13.1668 10.233 13.1935 10.1997 13.2335L9.19967 14.5668C8.89301 14.9735 8.45967 15.2068 7.99967 15.2068ZM5.33301 1.8335C2.94634 1.8335 1.83301 2.94683 1.83301 5.3335V8.66683C1.83301 11.6802 2.86634 12.1668 5.33301 12.1668H5.66634C6.00634 12.1668 6.39301 12.3602 6.59967 12.6335L7.59967 13.9668C7.83301 14.2735 8.16634 14.2735 8.39967 13.9668L9.39968 12.6335C9.61967 12.3402 9.96634 12.1668 10.333 12.1668H10.6663C13.053 12.1668 14.1663 11.0535 14.1663 8.66683V5.3335C14.1663 2.94683 13.053 1.8335 10.6663 1.8335H5.33301Z" fill="#405072"/>
<path d="M7.99967 7.99984C7.62634 7.99984 7.33301 7.69984 7.33301 7.33317C7.33301 6.9665 7.63301 6.6665 7.99967 6.6665C8.36634 6.6665 8.66634 6.9665 8.66634 7.33317C8.66634 7.69984 8.37301 7.99984 7.99967 7.99984Z" fill="#405072"/>
<path d="M10.6667 7.99984C10.2933 7.99984 10 7.69984 10 7.33317C10 6.9665 10.3 6.6665 10.6667 6.6665C11.0333 6.6665 11.3333 6.9665 11.3333 7.33317C11.3333 7.69984 11.04 7.99984 10.6667 7.99984Z" fill="#405072"/>
<path d="M5.33366 7.99984C4.96033 7.99984 4.66699 7.69984 4.66699 7.33317C4.66699 6.9665 4.96699 6.6665 5.33366 6.6665C5.70033 6.6665 6.00033 6.9665 6.00033 7.33317C6.00033 7.69984 5.70699 7.99984 5.33366 7.99984Z" fill="#405072"/>
</svg>
