<svg width="24" height="64" viewBox="0 0 24 64" fill="none" xmlns="http://www.w3.org/2000/svg">
<path d="M7 37.7499H5C2.58 37.7499 1.25 36.4199 1.25 33.9999V29.9999C1.25 27.5799 2.58 26.2499 5 26.2499H6.43C6.66 26.2499 6.89 26.1799 7.09 26.0599L10.01 24.2299C11.47 23.3199 12.89 23.1499 14.01 23.7699C15.13 24.3899 15.74 25.6799 15.74 27.4099V28.3699C15.74 28.7799 15.4 29.1199 14.99 29.1199C14.58 29.1199 14.24 28.7799 14.24 28.3699V27.4099C14.24 26.2699 13.89 25.4199 13.28 25.0899C12.67 24.7499 11.77 24.8999 10.8 25.5099L7.88 27.3299C7.45 27.6099 6.94 27.7499 6.43 27.7499H5C3.42 27.7499 2.75 28.4199 2.75 29.9999V33.9999C2.75 35.5799 3.42 36.2499 5 36.2499H7C7.41 36.2499 7.75 36.5899 7.75 36.9999C7.75 37.4099 7.41 37.7499 7 37.7499Z" fill="#001543"/>
<path d="M12.5501 40.5902C11.7601 40.5902 10.8901 40.3102 10.0201 39.7602C9.67009 39.5402 9.56009 39.0802 9.78009 38.7302C10.0001 38.3802 10.4601 38.2702 10.8101 38.4902C11.7801 39.0902 12.6801 39.2502 13.2901 38.9102C13.9001 38.5702 14.2501 37.7202 14.2501 36.5902V32.9502C14.2501 32.5402 14.5901 32.2002 15.0001 32.2002C15.4101 32.2002 15.7501 32.5402 15.7501 32.9502V36.5902C15.7501 38.3102 15.1301 39.6102 14.0201 40.2302C13.5701 40.4702 13.0701 40.5902 12.5501 40.5902Z" fill="#001543"/>
<path d="M18 36.7498C17.84 36.7498 17.69 36.6998 17.55 36.5998C17.22 36.3498 17.15 35.8798 17.4 35.5498C18.66 33.8698 18.93 31.6398 18.12 29.7098C17.96 29.3298 18.14 28.8898 18.52 28.7298C18.9 28.5698 19.34 28.7498 19.5 29.1298C20.52 31.5498 20.17 34.3598 18.6 36.4598C18.45 36.6498 18.23 36.7498 18 36.7498Z" fill="#001543"/>
<path d="M19.8301 39.2502C19.6701 39.2502 19.5201 39.2002 19.3801 39.1002C19.0501 38.8502 18.9801 38.3802 19.2301 38.0502C21.3701 35.2002 21.8401 31.3802 20.4601 28.0902C20.3001 27.7102 20.4801 27.2702 20.8601 27.1102C21.2501 26.9502 21.6801 27.1302 21.8401 27.5102C23.4301 31.2902 22.8901 35.6702 20.4301 38.9502C20.2901 39.1502 20.0601 39.2502 19.8301 39.2502Z" fill="#001543"/>
<path d="M1.99994 42.7499C1.80994 42.7499 1.61994 42.6799 1.46994 42.5299C1.17994 42.2399 1.17994 41.7599 1.46994 41.4699L21.4699 21.4699C21.7599 21.1799 22.2399 21.1799 22.5299 21.4699C22.8199 21.7599 22.8199 22.2399 22.5299 22.5299L2.52994 42.5299C2.37994 42.6799 2.18994 42.7499 1.99994 42.7499Z" fill="#001543"/>
</svg>
