<svg width="34" height="34" viewBox="0 0 34 34" fill="none" xmlns="http://www.w3.org/2000/svg">
<rect width="34" height="34" rx="17" fill="#F2F3F5"/>
<path d="M11.252 23.3016L11.2509 23.3013C10.5203 23.049 9.95578 22.5327 9.70782 21.8515C9.45158 21.1705 9.5422 20.4226 9.94297 19.7603C9.94302 19.7602 9.94307 19.7601 9.94312 19.76L10.9012 18.1688L11.252 23.3016ZM11.252 23.3016C13.1068 23.9227 15.0619 24.2331 17.0167 24.2331C18.9714 24.2331 20.9264 23.9227 22.7729 23.3017C23.4668 23.0732 24.0208 22.5457 24.2757 21.8512C24.5303 21.1577 24.4602 20.3933 24.0824 19.7607L24.0822 19.7605M11.252 23.3016L24.0822 19.7605M24.0822 19.7605L23.1329 18.1783C23.1328 18.1781 23.1327 18.1779 23.1326 18.1777C23.0405 18.0202 22.9483 17.7779 22.879 17.5241C22.8095 17.2699 22.7667 17.0174 22.7667 16.8414V14.4331C22.7667 11.2641 20.1858 8.68311 17.0167 8.68311C13.8477 8.68311 11.2667 11.2641 11.2667 14.4331V16.8414C11.2667 17.0216 11.2239 17.2742 11.1545 17.526M24.0822 19.7605L11.1545 17.526M11.1545 17.526C11.0852 17.7778 10.9931 18.0156 10.9013 18.1686L11.1545 17.526ZM12.1905 18.9392L12.1905 18.9393L12.1912 18.9381C12.5105 18.3944 12.7667 17.4726 12.7667 16.8414V14.4331C12.7667 12.0856 14.6773 10.1831 17.0167 10.1831C19.3644 10.1831 21.2667 12.0855 21.2667 14.4331V16.8331C21.2667 17.4639 21.5144 18.3773 21.8421 18.9379L21.8421 18.9379L21.843 18.9392L22.8013 20.5309L22.8015 20.5312C22.9475 20.7722 22.9704 21.0576 22.8742 21.324C22.7789 21.5876 22.5746 21.7848 22.3105 21.8729L22.3104 21.8729C18.8529 23.0309 15.1893 23.0309 11.7318 21.873C11.4162 21.7652 11.2019 21.5712 11.1179 21.3332L11.118 21.3331L11.1164 21.329C11.0261 21.0998 11.0628 20.8158 11.2323 20.5306C11.2324 20.5305 11.2324 20.5304 11.2325 20.5303L12.1905 18.9392Z" fill="#001543" stroke="#001543" stroke-width="0.25"/>
<path d="M19.2673 9.38998L19.2673 9.38998L19.2666 9.38831C18.9062 8.45634 18.0262 7.8584 17.0251 7.8584C16.0237 7.8584 15.1445 8.46478 14.7839 9.38708C14.674 9.65794 14.7348 9.95816 14.924 10.1673C15.1135 10.3767 15.4135 10.4678 15.6953 10.3778C16.3184 10.1919 16.9832 10.1429 17.6745 10.2322C17.8935 10.2647 18.1213 10.3135 18.358 10.3788C18.4268 10.3984 18.4965 10.4084 18.5667 10.4084C18.7652 10.4084 18.9741 10.3294 19.1246 10.1689L19.1246 10.1689L19.1261 10.1673C19.3178 9.95541 19.3657 9.65566 19.2673 9.38998Z" fill="#001543" stroke="#001543" stroke-width="0.25"/>
<path d="M17.0167 26.0083C16.1917 26.0083 15.3917 25.675 14.8084 25.0916C14.2251 24.5083 13.8917 23.7083 13.8917 22.8833H15.1417C15.1417 23.375 15.3417 23.8583 15.6917 24.2083C16.0417 24.5583 16.5251 24.7583 17.0167 24.7583C18.0501 24.7583 18.8917 23.9166 18.8917 22.8833H20.1417C20.1417 24.6083 18.7417 26.0083 17.0167 26.0083Z" fill="#001543"/>
<rect x="25" y="1" width="8" height="8" rx="4" fill="#DD2541" stroke="#F2F3F5" stroke-width="2"/>
</svg>
