<svg width="20" height="20" viewBox="0 0 20 20" fill="none" xmlns="http://www.w3.org/2000/svg">
<path d="M1.54199 9.58317C1.54199 14.016 5.1508 17.6248 9.58366 17.6248C14.0165 17.6248 17.6253 14.016 17.6253 9.58317C17.6253 5.15031 14.0165 1.5415 9.58366 1.5415C5.1508 1.5415 1.54199 5.15031 1.54199 9.58317ZM2.95053 9.58317C2.95053 5.92935 5.9223 2.95004 9.58366 2.95004C13.245 2.95004 16.2168 5.92935 16.2168 9.58317C16.2168 13.237 13.245 16.2163 9.58366 16.2163C5.9223 16.2163 2.95053 13.237 2.95053 9.58317Z" fill="#001543" stroke="#001543" stroke-width="0.25"/>
<path d="M17.3308 18.2647C17.4628 18.3965 17.6311 18.4585 17.7983 18.4585C17.9656 18.4585 18.1338 18.3965 18.2658 18.2647C18.5221 18.0085 18.5221 17.5863 18.2658 17.3301L16.8352 15.9005C16.5789 15.6445 16.1565 15.6445 15.9002 15.9005C15.6439 16.1567 15.6439 16.579 15.9002 16.8351L17.3308 18.2647Z" fill="#001543" stroke="#001543" stroke-width="0.25"/>
</svg>
