<svg width="20" height="20" viewBox="0 0 20 20" fill="none" xmlns="http://www.w3.org/2000/svg">
<path d="M1.5665 9.58329C1.5665 14.0023 5.16412 17.6 9.58317 17.6C14.0022 17.6 17.5998 14.0023 17.5998 9.58329C17.5998 5.16424 14.0022 1.56663 9.58317 1.56663C5.16412 1.56663 1.5665 5.16424 1.5665 9.58329ZM2.92504 9.58329C2.92504 5.91568 5.90799 2.92516 9.58317 2.92516C13.2584 2.92516 16.2413 5.91568 16.2413 9.58329C16.2413 13.2509 13.2584 16.2414 9.58317 16.2414C5.90799 16.2414 2.92504 13.2509 2.92504 9.58329Z" fill="#405072" stroke="#405072" stroke-width="0.2"/>
<path d="M17.349 18.2469C17.476 18.3738 17.6378 18.4334 17.7988 18.4334C17.9598 18.4334 18.1216 18.3738 18.2486 18.2469C18.4951 18.0005 18.4951 17.594 18.2486 17.3477L16.818 15.9181C16.5715 15.6718 16.1649 15.6718 15.9184 15.9181C15.6719 16.1645 15.6719 16.5709 15.9184 16.8173L17.349 18.2469Z" fill="#405072" stroke="#405072" stroke-width="0.2"/>
</svg>
