<svg width="17" height="16" viewBox="0 0 17 16" fill="none" xmlns="http://www.w3.org/2000/svg">
<path d="M10.3142 14.42C9.52757 14.42 8.41423 13.8667 7.53423 11.22L7.05423 9.78005L5.61423 9.30005C2.97423 8.42005 2.4209 7.30671 2.4209 6.52005C2.4209 5.74005 2.97423 4.62005 5.61423 3.73338L11.2742 1.84671C12.6876 1.37338 13.8676 1.51338 14.5942 2.23338C15.3209 2.95338 15.4609 4.14005 14.9876 5.55338L13.1009 11.2134C12.2142 13.8667 11.1009 14.42 10.3142 14.42ZM5.92757 4.68671C4.07423 5.30671 3.41423 6.04005 3.41423 6.52005C3.41423 7.00005 4.07423 7.73338 5.92757 8.34671L7.60756 8.90671C7.75423 8.95338 7.87423 9.07338 7.9209 9.22005L8.4809 10.9C9.09423 12.7534 9.83423 13.4134 10.3142 13.4134C10.7942 13.4134 11.5276 12.7534 12.1476 10.9L14.0342 5.24005C14.3742 4.21338 14.3142 3.37338 13.8809 2.94005C13.4476 2.50671 12.6076 2.45338 11.5876 2.79338L5.92757 4.68671Z" fill="#405072"/>
<path d="M7.57353 9.60016C7.44686 9.60016 7.3202 9.5535 7.2202 9.4535C7.02686 9.26016 7.02686 8.94016 7.2202 8.74683L9.60686 6.3535C9.80019 6.16016 10.1202 6.16016 10.3135 6.3535C10.5069 6.54683 10.5069 6.86683 10.3135 7.06016L7.92686 9.4535C7.83353 9.5535 7.7002 9.60016 7.57353 9.60016Z" fill="#405072"/>
</svg>
