<svg width="17" height="16" viewBox="0 0 17 16" fill="none" xmlns="http://www.w3.org/2000/svg">
<path d="M9.73 14.42C8.94334 14.42 7.83 13.8667 6.95 11.22L6.47 9.78005L5.03 9.30005C2.39 8.42005 1.83667 7.30671 1.83667 6.52005C1.83667 5.74005 2.39 4.62005 5.03 3.73338L10.69 1.84671C12.1033 1.37338 13.2833 1.51338 14.01 2.23338C14.7367 2.95338 14.8767 4.14005 14.4033 5.55338L12.5167 11.2134C11.63 13.8667 10.5167 14.42 9.73 14.42ZM5.34334 4.68671C3.49 5.30671 2.83 6.04005 2.83 6.52005C2.83 7.00005 3.49 7.73338 5.34334 8.34671L7.02334 8.90671C7.17 8.95338 7.29 9.07338 7.33667 9.22005L7.89667 10.9C8.51 12.7534 9.25 13.4134 9.73 13.4134C10.21 13.4134 10.9433 12.7534 11.5633 10.9L13.45 5.24005C13.79 4.21338 13.73 3.37338 13.2967 2.94005C12.8633 2.50671 12.0233 2.45338 11.0033 2.79338L5.34334 4.68671Z" fill="#405072"/>
<path d="M6.99003 9.60016C6.86337 9.60016 6.7367 9.5535 6.6367 9.4535C6.44337 9.26016 6.44337 8.94016 6.6367 8.74683L9.02337 6.3535C9.2167 6.16016 9.5367 6.16016 9.73003 6.3535C9.92337 6.54683 9.92337 6.86683 9.73003 7.06016L7.34337 9.4535C7.25003 9.5535 7.1167 9.60016 6.99003 9.60016Z" fill="#405072"/>
</svg>
