<svg width="44" height="44" viewBox="0 0 44 44" fill="none" xmlns="http://www.w3.org/2000/svg">
<rect width="44" height="44" rx="16" fill="#F4F4F7"/>
<path d="M27.2929 12.2929C27 12.5858 27 13.0572 27 14V27C27 27.9428 27 28.4142 27.2929 28.7071C27.5858 29 28.0572 29 29 29C29.9428 29 30.4142 29 30.7071 28.7071C31 28.4142 31 27.9428 31 27V14C31 13.0572 31 12.5858 30.7071 12.2929C30.4142 12 29.9428 12 29 12C28.0572 12 27.5858 12 27.2929 12.2929Z" fill="#E39433"/>
<path d="M20 17C20 16.0572 20 15.5858 20.2929 15.2929C20.5858 15 21.0572 15 22 15C22.9428 15 23.4142 15 23.7071 15.2929C24 15.5858 24 16.0572 24 17V27C24 27.9428 24 28.4142 23.7071 28.7071C23.4142 29 22.9428 29 22 29C21.0572 29 20.5858 29 20.2929 28.7071C20 28.4142 20 27.9428 20 27V17Z" fill="#E39433"/>
<path d="M13.2929 19.2929C13 19.5858 13 20.0572 13 21V27C13 27.9428 13 28.4142 13.2929 28.7071C13.5858 29 14.0572 29 15 29C15.9428 29 16.4142 29 16.7071 28.7071C17 28.4142 17 27.9428 17 27V21C17 20.0572 17 19.5858 16.7071 19.2929C16.4142 19 15.9428 19 15 19C14.0572 19 13.5858 19 13.2929 19.2929Z" fill="#E39433"/>
<path d="M13 31.25C12.5858 31.25 12.25 31.5858 12.25 32C12.25 32.4142 12.5858 32.75 13 32.75H31C31.4142 32.75 31.75 32.4142 31.75 32C31.75 31.5858 31.4142 31.25 31 31.25H13Z" fill="#E39433"/>
</svg>
