<svg width="24" height="64" viewBox="0 0 24 64" fill="none" xmlns="http://www.w3.org/2000/svg">
<path d="M20.9997 26.73C20.9797 26.73 20.9497 26.73 20.9197 26.73C15.6297 26.2 10.3497 26 5.11967 26.53L3.07967 26.73C2.65967 26.77 2.28967 26.47 2.24967 26.05C2.20967 25.63 2.50967 25.27 2.91967 25.23L4.95967 25.03C10.2797 24.49 15.6697 24.7 21.0697 25.23C21.4797 25.27 21.7797 25.64 21.7397 26.05C21.7097 26.44 21.3797 26.73 20.9997 26.73Z" fill="#DD2541"/>
<path d="M8.50074 25.72C8.46074 25.72 8.42074 25.72 8.37074 25.71C7.97074 25.64 7.69074 25.25 7.76074 24.85L7.98074 23.54C8.14074 22.58 8.36074 21.25 10.6907 21.25H13.3107C15.6507 21.25 15.8707 22.63 16.0207 23.55L16.2407 24.85C16.3107 25.26 16.0307 25.65 15.6307 25.71C15.2207 25.78 14.8307 25.5 14.7707 25.1L14.5507 23.8C14.4107 22.93 14.3807 22.76 13.3207 22.76H10.7007C9.64074 22.76 9.62074 22.9 9.47074 23.79L9.24074 25.09C9.18074 25.46 8.86074 25.72 8.50074 25.72Z" fill="#DD2541"/>
<path d="M15.2104 42.7501H8.79039C5.30039 42.7501 5.16039 40.8201 5.05039 39.2601L4.40039 29.1901C4.37039 28.7801 4.69039 28.4201 5.10039 28.3901C5.52039 28.3701 5.87039 28.6801 5.90039 29.0901L6.55039 39.1601C6.66039 40.6801 6.70039 41.2501 8.79039 41.2501H15.2104C17.3104 41.2501 17.3504 40.6801 17.4504 39.1601L18.1004 29.0901C18.1304 28.6801 18.4904 28.3701 18.9004 28.3901C19.3104 28.4201 19.6304 28.7701 19.6004 29.1901L18.9504 39.2601C18.8404 40.8201 18.7004 42.7501 15.2104 42.7501Z" fill="#DD2541"/>
<path d="M15.25 39.5H8.75C8.34 39.5 8 39.16 8 38.75C8 38.34 8.34 38 8.75 38H15.25C15.66 38 16 38.34 16 38.75C16 39.16 15.66 39.5 15.25 39.5Z" fill="#DD2541"/>
<path d="M15.75 35.5H8.25C7.84 35.5 7.5 35.16 7.5 34.75C7.5 34.34 7.84 34 8.25 34H15.75C16.16 34 16.5 34.34 16.5 34.75C16.5 35.16 16.16 35.5 15.75 35.5Z" fill="#DD2541"/>
<path d="M16.25 31.5H7.75C7.34 31.5 7 31.16 7 30.75C7 30.34 7.34 30 7.75 30H16.25C16.66 30 17 30.34 17 30.75C17 31.16 16.66 31.5 16.25 31.5Z" fill="#001543"/>
</svg>
