<svg width="24" height="24" viewBox="0 0 24 24" fill="none" xmlns="http://www.w3.org/2000/svg">
<path d="M15.8101 20.18C15.5501 20.18 15.2801 20.17 14.9901 20.14C14.4701 20.1 13.8801 20 13.2701 19.85L11.5901 19.45C6.98007 18.36 5.47007 15.92 6.55007 11.32L7.53007 7.13001C7.75007 6.18002 8.01007 5.41002 8.33007 4.77002C10.0501 1.22002 13.3401 1.54001 15.6801 2.09001L17.3501 2.48001C19.6901 3.03001 21.1701 3.90001 22.0001 5.23002C22.8201 6.56002 22.9501 8.27001 22.4001 10.61L21.4201 14.79C20.5601 18.45 18.7701 20.18 15.8101 20.18ZM13.1201 3.25001C11.4501 3.25001 10.3901 3.94002 9.68007 5.42002C9.42007 5.96002 9.19007 6.63001 8.99007 7.47001L8.01007 11.66C7.12007 15.44 8.15007 17.09 11.9301 17.99L13.6101 18.39C14.1501 18.52 14.6601 18.6 15.1201 18.64C17.8301 18.91 19.1901 17.72 19.9501 14.45L20.9301 10.27C21.3801 8.34002 21.3201 6.99002 20.7201 6.02001C20.1201 5.05001 18.9401 4.39002 17.0001 3.94002L15.3301 3.55001C14.5001 3.35001 13.7601 3.25001 13.1201 3.25001Z" fill="#001543"/>
<path d="M8.32907 22.2502C5.75908 22.2502 4.11907 20.7102 3.06907 17.4602L1.78907 13.5102C0.369075 9.11017 1.63907 6.63017 6.01907 5.21017L7.59907 4.70017C8.11907 4.54017 8.50907 4.43017 8.85907 4.37017C9.13907 4.31017 9.42908 4.42017 9.59908 4.65017C9.76908 4.88017 9.79908 5.18017 9.67908 5.44017C9.41908 5.97017 9.18907 6.64017 8.99907 7.48017L8.01908 11.6702C7.12908 15.4502 8.15907 17.1002 11.9391 18.0002L13.6191 18.4002C14.1591 18.5302 14.6691 18.6102 15.1291 18.6502C15.4491 18.6802 15.7091 18.9002 15.7991 19.2102C15.8791 19.5202 15.7591 19.8402 15.4991 20.0202C14.8391 20.4702 14.0091 20.8502 12.9591 21.1902L11.3791 21.7102C10.2291 22.0702 9.22907 22.2502 8.32907 22.2502ZM7.77908 6.22017L6.48907 6.64017C2.91907 7.79017 2.06907 9.47017 3.21907 13.0502L4.49907 17.0002C5.65907 20.5702 7.33908 21.4302 10.9091 20.2802L12.4891 19.7602C12.5491 19.7402 12.5991 19.7202 12.6591 19.7002L11.5991 19.4502C6.98908 18.3602 5.47907 15.9202 6.55907 11.3202L7.53907 7.13017C7.60908 6.81017 7.68907 6.50017 7.77908 6.22017Z" fill="#001543"/>
</svg>
