<svg width="25" height="24" viewBox="0 0 25 24" fill="none" xmlns="http://www.w3.org/2000/svg">
<circle cx="12.5" cy="12" r="10.2" stroke="#7F8AA1" stroke-width="1.6"/>
<path d="M9.5 16C10.05 16 10.5208 15.8042 10.9125 15.4125C11.3042 15.0208 11.5 14.55 11.5 14C11.5 13.45 11.3042 12.9792 10.9125 12.5875C10.5208 12.1958 10.05 12 9.5 12C8.95 12 8.47917 12.1958 8.0875 12.5875C7.69583 12.9792 7.5 13.45 7.5 14C7.5 14.55 7.69583 15.0208 8.0875 15.4125C8.47917 15.8042 8.95 16 9.5 16ZM15.5 16C16.05 16 16.5208 15.8042 16.9125 15.4125C17.3042 15.0208 17.5 14.55 17.5 14C17.5 13.45 17.3042 12.9792 16.9125 12.5875C16.5208 12.1958 16.05 12 15.5 12C14.95 12 14.4792 12.1958 14.0875 12.5875C13.6958 12.9792 13.5 13.45 13.5 14C13.5 14.55 13.6958 15.0208 14.0875 15.4125C14.4792 15.8042 14.95 16 15.5 16ZM12.5 11C13.05 11 13.5208 10.8042 13.9125 10.4125C14.3042 10.0208 14.5 9.55 14.5 9C14.5 8.45 14.3042 7.97917 13.9125 7.5875C13.5208 7.19583 13.05 7 12.5 7C11.95 7 11.4792 7.19583 11.0875 7.5875C10.6958 7.97917 10.5 8.45 10.5 9C10.5 9.55 10.6958 10.0208 11.0875 10.4125C11.4792 10.8042 11.95 11 12.5 11Z" fill="#7F8AA1"/>
</svg>
