<svg width="24" height="64" viewBox="0 0 24 64" fill="none" xmlns="http://www.w3.org/2000/svg">
<path d="M5.53999 41.0938C4.92999 41.0938 4.35999 40.8838 3.94999 40.4938C3.42999 40.0038 3.17999 39.2638 3.26999 38.4638L3.63999 35.2238C3.70999 34.6138 4.07999 33.8038 4.50999 33.3638L12.72 24.6738C14.77 22.5038 16.91 22.4438 19.08 24.4938C21.25 26.5438 21.31 28.6838 19.26 30.8538L11.05 39.5438C10.63 39.9938 9.84999 40.4138 9.23999 40.5138L6.01999 41.0638C5.84999 41.0738 5.69999 41.0938 5.53999 41.0938ZM15.93 24.4838C15.16 24.4838 14.49 24.9638 13.81 25.6838L5.59999 34.3838C5.39999 34.5938 5.16999 35.0938 5.12999 35.3838L4.75999 38.6238C4.71999 38.9538 4.79999 39.2238 4.97999 39.3938C5.15999 39.5638 5.42999 39.6238 5.75999 39.5738L8.97999 39.0238C9.26999 38.9738 9.74999 38.7138 9.94999 38.5038L18.16 29.8138C19.4 28.4938 19.85 27.2738 18.04 25.5738C17.24 24.8038 16.55 24.4838 15.93 24.4838Z" fill="#001543"/>
<path d="M17.3399 32.5236C17.3199 32.5236 17.2899 32.5236 17.2699 32.5236C14.1499 32.2136 11.6399 29.8436 11.1599 26.7436C11.0999 26.3336 11.3799 25.9536 11.7899 25.8836C12.1999 25.8236 12.5799 26.1036 12.6499 26.5136C13.0299 28.9336 14.9899 30.7936 17.4299 31.0336C17.8399 31.0736 18.1399 31.4436 18.0999 31.8536C18.0499 32.2336 17.7199 32.5236 17.3399 32.5236Z" fill="#001543"/>
</svg>
