<svg width="21" height="20" viewBox="0 0 21 20" fill="none" xmlns="http://www.w3.org/2000/svg">
<path d="M18.2082 7.62506C16.2832 4.60006 13.4665 2.8584 10.4998 2.8584C9.0165 2.8584 7.57484 3.29173 6.25817 4.10007C4.9415 4.91673 3.75817 6.1084 2.7915 7.62506C1.95817 8.9334 1.95817 11.0584 2.7915 12.3667C4.7165 15.4001 7.53317 17.1334 10.4998 17.1334C11.9832 17.1334 13.4248 16.7001 14.7415 15.8917C16.0582 15.0751 17.2415 13.8834 18.2082 12.3667C19.0415 11.0667 19.0415 8.9334 18.2082 7.62506ZM10.4998 13.3667C8.63317 13.3667 7.13317 11.8584 7.13317 10.0001C7.13317 8.14173 8.63317 6.6334 10.4998 6.6334C12.3665 6.6334 13.8665 8.14173 13.8665 10.0001C13.8665 11.8584 12.3665 13.3667 10.4998 13.3667Z" fill="#001543"/>
<path d="M10.5 7.61621C9.19167 7.61621 8.125 8.68288 8.125 9.99954C8.125 11.3079 9.19167 12.3745 10.5 12.3745C11.8083 12.3745 12.8833 11.3079 12.8833 9.99954C12.8833 8.69121 11.8083 7.61621 10.5 7.61621Z" fill="#001543"/>
</svg>
