<svg width="45" height="44" viewBox="0 0 45 44" fill="none" xmlns="http://www.w3.org/2000/svg">
<rect x="1.5" y="1" width="42" height="42" rx="21" fill="#5AA700"/>
<rect x="1.5" y="1" width="42" height="42" rx="21" stroke="white" stroke-width="2"/>
<path d="M28.6729 15.8274L28.6729 15.8274L28.6747 15.8291C29.6196 16.7646 30.0046 17.6025 29.9964 18.4088L29.9964 18.4088V18.4138C29.9964 19.1913 29.6115 20.0211 28.6747 20.9485L28.6747 20.9485L28.6714 20.9517L27.5119 22.1209C25.064 21.4029 23.102 19.4428 22.3815 16.9958L23.55 15.8274C24.4923 14.885 25.3439 14.495 26.1269 14.5C26.9117 14.5051 27.7532 14.9077 28.6729 15.8274Z" fill="white" stroke="white"/>
<path d="M25.6162 23.5239C25.3262 23.3839 25.0462 23.2439 24.7762 23.0839C24.5562 22.9539 24.3462 22.8139 24.1362 22.6639C23.9662 22.5539 23.7662 22.3939 23.5762 22.2339C23.5562 22.2239 23.4862 22.1639 23.4062 22.0839C23.0762 21.8039 22.7062 21.4439 22.3762 21.0439C22.3462 21.0239 22.2962 20.9539 22.2262 20.8639C22.1262 20.7439 21.9562 20.5439 21.8062 20.3139C21.6862 20.1639 21.5462 19.9439 21.4162 19.7239C21.2562 19.4539 21.1162 19.1839 20.9762 18.9039C20.955 18.8585 20.9345 18.8134 20.9146 18.7685C20.767 18.4352 20.3324 18.3377 20.0746 18.5955L14.3462 24.3239C14.2162 24.4539 14.0962 24.7039 14.0662 24.8739L13.5262 28.7039C13.4262 29.3839 13.6162 30.0239 14.0362 30.4539C14.3962 30.8039 14.8962 30.9939 15.4362 30.9939C15.5562 30.9939 15.6762 30.9839 15.7962 30.9639L19.6362 30.4239C19.8162 30.3939 20.0662 30.2739 20.1862 30.1439L25.9075 24.4226C26.167 24.1631 26.0691 23.7176 25.7315 23.5736C25.6935 23.5573 25.6551 23.5408 25.6162 23.5239Z" fill="white"/>
</svg>
