<svg width="25" height="24" viewBox="0 0 25 24" fill="none" xmlns="http://www.w3.org/2000/svg">
<path d="M15.5 22.75H9.5C4.07 22.75 1.75 20.43 1.75 15V9C1.75 3.57 4.07 1.25 9.5 1.25H15.5C20.93 1.25 23.25 3.57 23.25 9V15C23.25 20.43 20.93 22.75 15.5 22.75ZM9.5 2.75C4.89 2.75 3.25 4.39 3.25 9V15C3.25 19.61 4.89 21.25 9.5 21.25H15.5C20.11 21.25 21.75 19.61 21.75 15V9C21.75 4.39 20.11 2.75 15.5 2.75H9.5Z" fill="#7F8AA1"/>
<path d="M9.18 15.3299C8.76 15.3299 8.37 15.2299 8.03 15.0399C7.2 14.5699 6.75 13.6399 6.75 12.4199V2.43994C6.75 2.02994 7.09 1.68994 7.5 1.68994C7.91 1.68994 8.25 2.02994 8.25 2.43994V12.4199C8.25 13.0699 8.44 13.5499 8.77 13.7299C9.12 13.9299 9.66 13.8299 10.25 13.4799L11.57 12.6899C12.11 12.3699 12.88 12.3699 13.42 12.6899L14.74 13.4799C15.34 13.8399 15.88 13.9299 16.22 13.7299C16.55 13.5399 16.74 13.0599 16.74 12.4199V2.43994C16.74 2.02994 17.08 1.68994 17.49 1.68994C17.9 1.68994 18.24 2.02994 18.24 2.43994V12.4199C18.24 13.6399 17.79 14.5699 16.96 15.0399C16.13 15.5099 15.04 15.4099 13.97 14.7699L12.65 13.9799C12.59 13.9399 12.4 13.9399 12.34 13.9799L11.02 14.7699C10.4 15.1399 9.76 15.3299 9.18 15.3299Z" fill="#7F8AA1"/>
<path d="M15.5 22.75H9.5C4.07 22.75 1.75 20.43 1.75 15V9C1.75 3.57 4.07 1.25 9.5 1.25H15.5C20.93 1.25 23.25 3.57 23.25 9V15C23.25 20.43 20.93 22.75 15.5 22.75ZM9.5 2.75C4.89 2.75 3.25 4.39 3.25 9V15C3.25 19.61 4.89 21.25 9.5 21.25H15.5C20.11 21.25 21.75 19.61 21.75 15V9C21.75 4.39 20.11 2.75 15.5 2.75H9.5Z" fill="#7F8AA1"/>
<path d="M9.18 15.3299C8.76 15.3299 8.37 15.2299 8.03 15.0399C7.2 14.5699 6.75 13.6399 6.75 12.4199V2.43994C6.75 2.02994 7.09 1.68994 7.5 1.68994C7.91 1.68994 8.25 2.02994 8.25 2.43994V12.4199C8.25 13.0699 8.44 13.5499 8.77 13.7299C9.12 13.9299 9.66 13.8299 10.25 13.4799L11.57 12.6899C12.11 12.3699 12.88 12.3699 13.42 12.6899L14.74 13.4799C15.34 13.8399 15.88 13.9299 16.22 13.7299C16.55 13.5399 16.74 13.0599 16.74 12.4199V2.43994C16.74 2.02994 17.08 1.68994 17.49 1.68994C17.9 1.68994 18.24 2.02994 18.24 2.43994V12.4199C18.24 13.6399 17.79 14.5699 16.96 15.0399C16.13 15.5099 15.04 15.4099 13.97 14.7699L12.65 13.9799C12.59 13.9399 12.4 13.9399 12.34 13.9799L11.02 14.7699C10.4 15.1399 9.76 15.3299 9.18 15.3299Z" fill="#7F8AA1"/>
</svg>
