<svg width="32" height="32" viewBox="0 0 32 32" fill="none" xmlns="http://www.w3.org/2000/svg">
<rect width="32" height="32" rx="16" fill="#FEF3E5"/>
<circle cx="16" cy="16" r="7.45" stroke="#F18A00" stroke-width="1.6"/>
<path d="M13.75 19C14.1625 19 14.5156 18.8531 14.8094 18.5594C15.1031 18.2656 15.25 17.9125 15.25 17.5C15.25 17.0875 15.1031 16.7344 14.8094 16.4406C14.5156 16.1469 14.1625 16 13.75 16C13.3375 16 12.9844 16.1469 12.6906 16.4406C12.3969 16.7344 12.25 17.0875 12.25 17.5C12.25 17.9125 12.3969 18.2656 12.6906 18.5594C12.9844 18.8531 13.3375 19 13.75 19ZM18.25 19C18.6625 19 19.0156 18.8531 19.3094 18.5594C19.6031 18.2656 19.75 17.9125 19.75 17.5C19.75 17.0875 19.6031 16.7344 19.3094 16.4406C19.0156 16.1469 18.6625 16 18.25 16C17.8375 16 17.4844 16.1469 17.1906 16.4406C16.8969 16.7344 16.75 17.0875 16.75 17.5C16.75 17.9125 16.8969 18.2656 17.1906 18.5594C17.4844 18.8531 17.8375 19 18.25 19ZM16 15.25C16.4125 15.25 16.7656 15.1031 17.0594 14.8094C17.3531 14.5156 17.5 14.1625 17.5 13.75C17.5 13.3375 17.3531 12.9844 17.0594 12.6906C16.7656 12.3969 16.4125 12.25 16 12.25C15.5875 12.25 15.2344 12.3969 14.9406 12.6906C14.6469 12.9844 14.5 13.3375 14.5 13.75C14.5 14.1625 14.6469 14.5156 14.9406 14.8094C15.2344 15.1031 15.5875 15.25 16 15.25Z" fill="#F18A00"/>
</svg>
