<svg width="32" height="32" viewBox="0 0 32 32" fill="none" xmlns="http://www.w3.org/2000/svg">
<rect width="32" height="32" rx="16" fill="#FEF3E5"/>
<path d="M22.7502 12.0478C22.7352 12.0478 22.7127 12.0478 22.6902 12.0478C18.7227 11.6503 14.7627 11.5003 10.8402 11.8978L9.31024 12.0478C8.99524 12.0778 8.71774 11.8528 8.68774 11.5378C8.65774 11.2228 8.88274 10.9528 9.19024 10.9228L10.7202 10.7728C14.7102 10.3678 18.7527 10.5253 22.8027 10.9228C23.1102 10.9528 23.3352 11.2303 23.3052 11.5378C23.2827 11.8303 23.0352 12.0478 22.7502 12.0478Z" fill="#F18A00"/>
<path d="M13.3751 11.29C13.3451 11.29 13.3151 11.29 13.2776 11.2825C12.9776 11.23 12.7676 10.9375 12.8201 10.6375L12.9851 9.655C13.1051 8.935 13.2701 7.9375 15.0176 7.9375H16.9826C18.7376 7.9375 18.9026 8.9725 19.0151 9.6625L19.1801 10.6375C19.2326 10.945 19.0226 11.2375 18.7226 11.2825C18.4151 11.335 18.1226 11.125 18.0776 10.825L17.9126 9.85C17.8076 9.1975 17.7851 9.07 16.9901 9.07H15.0251C14.2301 9.07 14.2151 9.175 14.1026 9.8425L13.9301 10.8175C13.8851 11.095 13.6451 11.29 13.3751 11.29Z" fill="#F18A00"/>
<path d="M18.4073 24.0627H13.5923C10.9748 24.0627 10.8698 22.6152 10.7873 21.4452L10.2998 13.8927C10.2773 13.5852 10.5173 13.3152 10.8248 13.2927C11.1398 13.2777 11.4023 13.5102 11.4248 13.8177L11.9123 21.3702C11.9948 22.5102 12.0248 22.9377 13.5923 22.9377H18.4073C19.9823 22.9377 20.0123 22.5102 20.0873 21.3702L20.5748 13.8177C20.5973 13.5102 20.8673 13.2777 21.1748 13.2927C21.4823 13.3152 21.7223 13.5777 21.6998 13.8927L21.2123 21.4452C21.1298 22.6152 21.0248 24.0627 18.4073 24.0627Z" fill="#F18A00"/>
<path d="M18.4375 21.625H13.5625C13.255 21.625 13 21.37 13 21.0625C13 20.755 13.255 20.5 13.5625 20.5H18.4375C18.745 20.5 19 20.755 19 21.0625C19 21.37 18.745 21.625 18.4375 21.625Z" fill="#F18A00"/>
<path d="M18.8125 18.625H13.1875C12.88 18.625 12.625 18.37 12.625 18.0625C12.625 17.755 12.88 17.5 13.1875 17.5H18.8125C19.12 17.5 19.375 17.755 19.375 18.0625C19.375 18.37 19.12 18.625 18.8125 18.625Z" fill="#F18A00"/>
<path d="M19.1875 15.625H12.8125C12.505 15.625 12.25 15.37 12.25 15.0625C12.25 14.755 12.505 14.5 12.8125 14.5H19.1875C19.495 14.5 19.75 14.755 19.75 15.0625C19.75 15.37 19.495 15.625 19.1875 15.625Z" fill="#F18A00"/>
</svg>
