<svg width="32" height="32" viewBox="0 0 32 32" fill="none" xmlns="http://www.w3.org/2000/svg">
<rect width="32" height="32" rx="16" fill="#FEF3E5"/>
<path d="M15.3375 14.3276C15.3375 14.6903 15.6373 14.9901 16 14.9901C16.3619 14.9901 16.6625 14.6987 16.6625 14.3276V11.8301C16.6625 11.4673 16.3627 11.1676 16 11.1676C15.6373 11.1676 15.3375 11.4673 15.3375 11.8301V14.3276Z" fill="#F18A00" stroke="#F18A00" stroke-width="0.2"/>
<path d="M10.161 18.7209L10.1607 18.7214C9.97852 19.0228 9.94143 19.3358 10.0413 19.6021C10.1411 19.8683 10.3692 20.0748 10.7068 20.1873C14.1363 21.328 17.9091 21.328 21.3386 20.1873L21.3392 20.1871C21.6326 20.0916 21.8565 19.8741 21.9585 19.5886L21.9592 19.5866C22.0676 19.3019 22.0346 18.9887 21.8767 18.7207C21.8766 18.7206 21.8766 18.7206 21.8765 18.7205L20.9247 17.1317C20.9247 17.1316 20.9246 17.1315 20.9245 17.1314C20.5998 16.5977 20.3551 15.7023 20.3551 15.0772L20.3551 13.5025L20.3551 13.5022M10.161 18.7209L20.3551 13.5022M10.161 18.7209L11.1131 17.1242C11.1131 17.124 11.1132 17.1239 11.1133 17.1238M10.161 18.7209L11.1133 17.1238M20.3551 13.5022C20.3476 11.1046 18.4046 9.16219 16.0151 9.16219C13.6254 9.16219 11.6826 11.1049 11.6826 13.4947V15.0697C11.6826 15.6948 11.438 16.5901 11.1133 17.1238M20.3551 13.5022L11.1133 17.1238M9.02186 18.0258L9.0218 18.0259C8.6401 18.6647 8.56006 19.401 8.79623 20.0465C9.03261 20.6926 9.57478 21.2009 10.2837 21.4346C12.1316 22.053 14.0697 22.3622 16.0151 22.3622C17.9604 22.3622 19.8987 22.0606 21.7471 21.4344C22.42 21.2075 22.9534 20.6983 23.1966 20.0315C23.4392 19.3662 23.3768 18.6371 23.0083 18.0256L22.0561 16.436C22.056 16.436 22.056 16.436 22.056 16.436C21.9572 16.27 21.8607 16.0242 21.789 15.7675C21.7171 15.5105 21.6726 15.2521 21.6726 15.0622V13.4872C21.6726 10.3645 19.1379 7.82969 16.0151 7.82969C12.8924 7.82969 10.3576 10.3645 10.3576 13.4872V15.0622C10.3576 15.2559 10.3131 15.5143 10.2414 15.7702C10.1696 16.0259 10.0732 16.27 9.97423 16.436L9.02186 18.0258Z" fill="#F18A00" stroke="#F18A00" stroke-width="0.2"/>
<path d="M12.9399 21.0152H12.8399V21.1152C12.8399 21.9446 13.1807 22.7575 13.7692 23.3459C14.3577 23.9344 15.1705 24.2752 15.9999 24.2752C17.7427 24.2752 19.1599 22.858 19.1599 21.1152V21.0152H19.0599H17.9349H17.8349V21.1152C17.8349 22.125 17.0097 22.9502 15.9999 22.9502C15.5171 22.9502 15.0473 22.7512 14.7057 22.4095C14.364 22.0678 14.1649 21.5981 14.1649 21.1152V21.0152H14.0649H12.9399Z" fill="#F18A00" stroke="#F18A00" stroke-width="0.2"/>
</svg>
