<svg width="20" height="20" viewBox="0 0 20 20" fill="none" xmlns="http://www.w3.org/2000/svg">
<path d="M1.5665 9.58366C1.5665 14.0027 5.16412 17.6003 9.58317 17.6003C14.0022 17.6003 17.5998 14.0027 17.5998 9.58366C17.5998 5.16461 14.0022 1.56699 9.58317 1.56699C5.16412 1.56699 1.5665 5.16461 1.5665 9.58366ZM2.92504 9.58366C2.92504 5.91605 5.90799 2.92553 9.58317 2.92553C13.2584 2.92553 16.2413 5.91605 16.2413 9.58366C16.2413 13.2513 13.2584 16.2418 9.58317 16.2418C5.90799 16.2418 2.92504 13.2513 2.92504 9.58366Z" fill="#001543" stroke="#001543" stroke-width="0.2"/>
<path d="M17.349 18.2465C17.476 18.3734 17.6378 18.433 17.7988 18.433C17.9598 18.433 18.1216 18.3734 18.2486 18.2465C18.4951 18.0001 18.4951 17.5937 18.2486 17.3473L16.818 15.9177C16.5715 15.6714 16.1649 15.6714 15.9184 15.9177C15.6719 16.1641 15.6719 16.5705 15.9184 16.8169L17.349 18.2465Z" fill="#001543" stroke="#001543" stroke-width="0.2"/>
</svg>
