<svg width="24" height="64" viewBox="0 0 24 64" fill="none" xmlns="http://www.w3.org/2000/svg">
<path d="M12.0002 42.63C11.3302 42.63 10.6502 42.48 10.1202 42.17L4.62023 39C2.38023 37.49 2.24023 37.26 2.24023 34.89V29.11C2.24023 26.74 2.37023 26.51 4.57023 25.02L10.1102 21.82C11.1602 21.21 12.8102 21.21 13.8602 21.82L19.3802 25C21.6202 26.51 21.7602 26.74 21.7602 29.11V34.88C21.7602 37.25 21.6302 37.48 19.4302 38.97L13.8902 42.17C13.3502 42.48 12.6702 42.63 12.0002 42.63ZM12.0002 22.87C11.5802 22.87 11.1702 22.95 10.8802 23.12L5.38023 26.3C3.75023 27.4 3.75023 27.4 3.75023 29.11V34.88C3.75023 36.59 3.75023 36.59 5.42023 37.72L10.8802 40.8701C11.4702 41.2101 12.5402 41.2101 13.1302 40.8701L18.6302 37.6901C20.2502 36.59 20.2502 36.59 20.2502 34.88V29.11C20.2502 27.4 20.2502 27.4 18.5802 26.27L13.1202 23.12C12.8302 22.95 12.4202 22.87 12.0002 22.87Z" fill="#001543"/>
<path d="M12 35.75C9.93 35.75 8.25 34.07 8.25 32C8.25 29.93 9.93 28.25 12 28.25C14.07 28.25 15.75 29.93 15.75 32C15.75 34.07 14.07 35.75 12 35.75ZM12 29.75C10.76 29.75 9.75 30.76 9.75 32C9.75 33.24 10.76 34.25 12 34.25C13.24 34.25 14.25 33.24 14.25 32C14.25 30.76 13.24 29.75 12 29.75Z" fill="#001543"/>
</svg>
