<svg width="25" height="24" viewBox="0 0 25 24" fill="none" xmlns="http://www.w3.org/2000/svg">
<path d="M18.29 22.74H6.71C3.97 22.74 1.75 20.51 1.75 17.77V10.36C1.75 8.99996 2.59 7.28996 3.67 6.44996L9.06 2.24996C10.68 0.989964 13.27 0.929964 14.95 2.10996L21.13 6.43996C22.32 7.26996 23.25 9.04996 23.25 10.5V17.78C23.25 20.51 21.03 22.74 18.29 22.74ZM9.98 3.42996L4.59 7.62996C3.88 8.18996 3.25 9.45996 3.25 10.36V17.77C3.25 19.68 4.8 21.24 6.71 21.24H18.29C20.2 21.24 21.75 19.69 21.75 17.78V10.5C21.75 9.53996 21.06 8.20996 20.27 7.66996L14.09 3.33996C12.95 2.53996 11.07 2.57996 9.98 3.42996Z" fill="#7F8AA1"/>
<path d="M7.99994 17.2499C7.80994 17.2499 7.61994 17.1799 7.46994 17.0299C7.17994 16.7399 7.17994 16.2599 7.46994 15.9699L10.6699 12.7699C10.8299 12.6099 11.0399 12.5299 11.2699 12.5499C11.4899 12.5699 11.6899 12.6899 11.8199 12.8799L12.9099 14.5199L16.4599 10.9699C16.7499 10.6799 17.2299 10.6799 17.5199 10.9699C17.8099 11.2599 17.8099 11.7399 17.5199 12.0299L13.3199 16.2299C13.1599 16.3899 12.9499 16.4699 12.7199 16.4499C12.4999 16.4299 12.2999 16.3099 12.1699 16.1199L11.0799 14.4799L8.52994 17.0299C8.37994 17.1799 8.18994 17.2499 7.99994 17.2499Z" fill="#7F8AA1"/>
<path d="M17 14.25C16.59 14.25 16.25 13.91 16.25 13.5V12.25H15C14.59 12.25 14.25 11.91 14.25 11.5C14.25 11.09 14.59 10.75 15 10.75H17C17.41 10.75 17.75 11.09 17.75 11.5V13.5C17.75 13.91 17.41 14.25 17 14.25Z" fill="#7F8AA1"/>
</svg>
