<svg width="24" height="24" viewBox="0 0 24 24" fill="none" xmlns="http://www.w3.org/2000/svg">
<path d="M15.0001 22.7498H9.00014C7.68014 22.7498 6.58015 22.6198 5.65015 22.3398C5.31015 22.2398 5.09015 21.9098 5.11015 21.5598C5.36015 18.5698 8.39015 16.2197 12.0001 16.2197C15.6101 16.2197 18.6301 18.5598 18.8901 21.5598C18.9201 21.9198 18.7001 22.2398 18.3501 22.3398C17.4201 22.6198 16.3201 22.7498 15.0001 22.7498ZM6.72015 21.0598C7.38015 21.1898 8.13015 21.2498 9.00014 21.2498H15.0001C15.8701 21.2498 16.6201 21.1898 17.2801 21.0598C16.7501 19.1398 14.5601 17.7197 12.0001 17.7197C9.44015 17.7197 7.25015 19.1398 6.72015 21.0598Z" fill="#5AA700"/>
<path d="M12 14.17C10.02 14.17 8.42 12.56 8.42 10.58C8.42 8.60002 10.02 7 12 7C13.98 7 15.58 8.60002 15.58 10.58C15.58 12.56 13.98 14.17 12 14.17Z" fill="#5AA700"/>
<path fill-rule="evenodd" clip-rule="evenodd" d="M15 2H9C4 2 2 4 2 9V15C2 18.78 3.14 20.85 5.86 21.62C6.08 19.02 8.75 16.97 12 16.97C15.25 16.97 17.92 19.02 18.14 21.62C20.86 20.85 22 18.78 22 15V9C22 4 20 2 15 2ZM8.42 10.58C8.42 12.56 10.02 14.17 12 14.17C13.98 14.17 15.58 12.56 15.58 10.58C15.58 8.60002 13.98 7 12 7C10.02 7 8.42 8.60002 8.42 10.58Z" fill="#EEF6E5"/>
<path d="M12 14.17C10.02 14.17 8.42 12.56 8.42 10.58C8.42 8.60002 10.02 7 12 7C13.98 7 15.58 8.60002 15.58 10.58C15.58 12.56 13.98 14.17 12 14.17Z" stroke="#5AA700" stroke-width="1.5" stroke-linecap="round" stroke-linejoin="round"/>
<path fill-rule="evenodd" clip-rule="evenodd" d="M15 2H9C4 2 2 4 2 9V15C2 18.78 3.14 20.85 5.86 21.62C6.08 19.02 8.75 16.97 12 16.97C15.25 16.97 17.92 19.02 18.14 21.62C20.86 20.85 22 18.78 22 15V9C22 4 20 2 15 2ZM8.42 10.58C8.42 12.56 10.02 14.17 12 14.17C13.98 14.17 15.58 12.56 15.58 10.58C15.58 8.60002 13.98 7 12 7C10.02 7 8.42 8.60002 8.42 10.58Z" stroke="#5AA700" stroke-width="1.5" stroke-linecap="round" stroke-linejoin="round"/>
</svg>
