<svg width="24" height="64" viewBox="0 0 24 64" fill="none" xmlns="http://www.w3.org/2000/svg">
<path d="M12.1596 31.62C12.1296 31.62 12.1096 31.62 12.0796 31.62C12.0296 31.61 11.9596 31.61 11.8996 31.62C8.99957 31.53 6.80957 29.25 6.80957 26.44C6.80957 23.58 9.13957 21.25 11.9996 21.25C14.8596 21.25 17.1896 23.58 17.1896 26.44C17.1796 29.25 14.9796 31.53 12.1896 31.62C12.1796 31.62 12.1696 31.62 12.1596 31.62ZM11.9996 22.75C9.96957 22.75 8.30957 24.41 8.30957 26.44C8.30957 28.44 9.86957 30.05 11.8596 30.12C11.9096 30.11 12.0496 30.11 12.1796 30.12C14.1396 30.03 15.6796 28.42 15.6896 26.44C15.6896 24.41 14.0296 22.75 11.9996 22.75Z" fill="#001543"/>
<path d="M12.1696 42.55C10.2096 42.55 8.23961 42.05 6.74961 41.05C5.35961 40.13 4.59961 38.87 4.59961 37.5C4.59961 36.13 5.35961 34.86 6.74961 33.93C9.74961 31.94 14.6096 31.94 17.5896 33.93C18.9696 34.85 19.7396 36.11 19.7396 37.48C19.7396 38.85 18.9796 40.12 17.5896 41.05C16.0896 42.05 14.1296 42.55 12.1696 42.55ZM7.57961 35.19C6.61961 35.83 6.09961 36.65 6.09961 37.51C6.09961 38.36 6.62961 39.18 7.57961 39.81C10.0696 41.48 14.2696 41.48 16.7596 39.81C17.7196 39.17 18.2396 38.35 18.2396 37.49C18.2396 36.64 17.7096 35.82 16.7596 35.19C14.2696 33.53 10.0696 33.53 7.57961 35.19Z" fill="#001543"/>
</svg>
